<svg width="54" height="54" viewBox="0 0 54 54" fill="none" xmlns="http://www.w3.org/2000/svg">
<g clip-path="url(#clip0)">
<path d="M27 54C41.9117 54 54 41.9117 54 27C54 12.0883 41.9117 0 27 0C12.0883 0 0 12.0883 0 27C0 41.9117 12.0883 54 27 54Z" fill="#07A3E9"/>
<path d="M54 27C54 26.3274 53.9746 25.6606 53.9262 25.0003L43.5865 14.6605L12.1494 41.3787L24.6695 53.8988C25.4378 53.9646 26.2147 54.0001 27 54.0001C41.9117 54.0001 54 41.9117 54 27Z" fill="#1177A5"/>
<path fill-rule="evenodd" clip-rule="evenodd" d="M47.7816 23.9599L23.9599 47.7816C13.8026 46.3086 6 37.5655 6 27C6 15.402 15.402 6 27 6C37.5655 6 46.3086 13.8026 47.7816 23.9599Z" fill="#FFAD61"/>
<path d="M27.255 28.306C30.0112 28.306 32.2454 26.0717 32.2454 23.3156C32.2454 20.5595 30.0112 18.3252 27.255 18.3252C24.4989 18.3252 22.2646 20.5595 22.2646 23.3156C22.2646 26.0717 24.4989 28.306 27.255 28.306Z" fill="#F9572B"/>
<path d="M35.8218 21.4849V25.147L33.5148 25.5625C33.2491 26.2931 32.8578 26.9629 32.3671 27.5468L33.1621 29.7544L29.9901 31.5857L28.477 29.7946C28.1042 29.86 27.7212 29.8945 27.3304 29.8945L26.3006 28.4555L27.3304 26.7936C29.2508 26.7931 30.8072 25.2367 30.8072 23.3163C30.8072 21.3959 29.2508 19.8395 27.3304 19.839L26.3006 18.0556L27.3304 16.738C27.7211 16.738 28.1042 16.7725 28.477 16.8379L29.9901 15.0463L33.1621 16.8776L32.3671 19.0858C32.8578 19.6691 33.2491 20.3394 33.5148 21.07L35.8218 21.4849Z" fill="#D8D8D8"/>
<path d="M27.3304 14.3861V32.7997H24.8529C24.4689 32.7997 24.1213 32.6442 23.8695 32.3924C23.6178 32.1407 23.4623 31.7927 23.4623 31.4091C23.4623 30.8489 23.1827 30.3238 22.7131 30.019C20.3732 28.5017 18.8266 25.8647 18.8327 22.8667C18.842 18.2495 22.5907 14.4525 27.2068 14.3871C27.248 14.3866 27.2892 14.3861 27.3304 14.3861Z" fill="#FCE93D"/>
<path d="M26.0285 32.7998H24.8531C24.0846 32.7998 23.4625 32.1769 23.4625 31.4085C23.4625 30.848 23.1827 30.3242 22.7133 30.0196C20.3727 28.5019 18.8263 25.8648 18.8327 22.867C18.8423 18.2499 22.5909 14.4525 27.2071 14.387C27.2263 14.387 27.2463 14.3861 27.2655 14.387C24.8387 14.4526 22.8684 18.2499 22.8636 22.867C22.8604 25.8647 23.6736 28.5019 24.9034 30.0195C25.1505 30.3242 25.2968 30.8479 25.2968 31.4084C25.2968 32.1769 25.6247 32.7998 26.0285 32.7998Z" fill="#FDD33F"/>
<path d="M30.1219 35.114H24.5394C23.9445 35.114 23.4623 34.6317 23.4623 34.0369V33.8767C23.4623 33.2818 23.9445 32.7996 24.5394 32.7996H30.1219C30.7167 32.7996 31.199 33.2818 31.199 33.8767V34.0369C31.199 34.6317 30.7168 35.114 30.1219 35.114Z" fill="#D8D8D8"/>
<path d="M30.1219 37.4285H24.5394C23.9445 37.4285 23.4623 36.9462 23.4623 36.3513V36.1911C23.4623 35.5963 23.9445 35.114 24.5394 35.114H30.1219C30.7167 35.114 31.199 35.5963 31.199 36.1911V36.3513C31.199 36.9462 30.7168 37.4285 30.1219 37.4285Z" fill="#D8D8D8"/>
<path d="M26.979 35.114H24.6194C23.9805 35.114 23.4623 34.5959 23.4623 33.9569C23.4623 33.6371 23.5919 33.3476 23.8013 33.1389C24.0108 32.9295 24.3003 32.7999 24.6193 32.7999H26.979C26.6592 32.7999 26.3705 32.9295 26.161 33.1389C25.9515 33.3476 25.822 33.6371 25.822 33.9569C25.822 34.5958 26.3401 35.114 26.979 35.114Z" fill="#BCBCBC"/>
<path d="M26.979 37.4281H24.6194C23.9805 37.4281 23.4623 36.9107 23.4623 36.271C23.4623 35.952 23.5919 35.6625 23.8013 35.453C24.0108 35.2436 24.3003 35.114 24.6193 35.114H26.979C26.6592 35.114 26.3705 35.2436 26.161 35.453C25.9515 35.6625 25.822 35.952 25.822 36.271C25.822 36.9107 26.3401 37.4281 26.979 37.4281Z" fill="#BCBCBC"/>
<path d="M27.255 24.9117C28.1365 24.9117 28.8511 24.1971 28.8511 23.3157C28.8511 22.4342 28.1365 21.7196 27.255 21.7196C26.3735 21.7196 25.659 22.4342 25.659 23.3157C25.659 24.1971 26.3735 24.9117 27.255 24.9117Z" fill="#45B8C4"/>
<path d="M25.1453 37.4285C25.1453 38.6354 26.1237 39.6138 27.3306 39.6138C28.5376 39.6138 29.516 38.6354 29.516 37.4285" fill="#424C59"/>
<path d="M30.1219 32.4133H27.7165V25.2601C28.6252 25.0798 29.3126 24.2768 29.3126 23.316C29.3126 22.3551 28.6252 21.552 27.7165 21.3718V14.3861C27.7165 14.1729 27.5436 14 27.3304 14C27.2895 14 27.2486 14.0005 27.2077 14.001L27.2013 14.0011C25.6904 14.0225 24.2005 14.4354 22.8929 15.1953C21.6257 15.9316 20.5473 16.98 19.7743 18.2271C19.662 18.4084 19.7178 18.6464 19.8991 18.7588C20.0803 18.8711 20.3184 18.8152 20.4307 18.634C21.8574 16.3324 24.2777 14.9065 26.9442 14.7814V21.3719C26.0355 21.5521 25.3482 22.3552 25.3482 23.316C25.3482 24.2768 26.0355 25.0799 26.9442 25.2601V32.4134H24.8478C24.5813 32.4121 24.3311 32.308 24.1426 32.1195C23.9529 31.9299 23.8485 31.6776 23.8485 31.4092C23.8485 30.7119 23.5026 30.0712 22.9233 29.6951C20.598 28.1874 19.2132 25.6351 19.2189 22.8676C19.2211 21.8001 19.4303 20.7608 19.841 19.7787C19.9233 19.582 19.8305 19.3557 19.6337 19.2735C19.4371 19.1912 19.2108 19.284 19.1285 19.4808C18.6783 20.5572 18.4489 21.6962 18.4465 22.866C18.4403 25.8969 19.9567 28.692 22.5029 30.343C22.8618 30.576 23.0761 30.9746 23.0761 31.4092C23.0761 31.8839 23.2609 32.3301 23.5964 32.6656C23.6137 32.683 23.6315 32.6997 23.6494 32.7162C23.3011 32.9839 23.076 33.4044 23.076 33.8767V34.0369C23.076 34.4627 23.2588 34.8464 23.5501 35.114C23.2589 35.3817 23.076 35.7654 23.076 36.1912V36.3514C23.076 37.1582 23.7324 37.8146 24.5392 37.8146H24.788C24.9748 39.05 26.0438 40 27.3304 40C28.6171 40 29.686 39.05 29.8728 37.8146H30.1216C30.9285 37.8146 31.5849 37.1582 31.5849 36.3514V36.1912C31.5849 35.7654 31.4021 35.3817 31.1108 35.114C31.402 34.8464 31.5849 34.4627 31.5849 34.0369V33.8767C31.5851 33.0697 30.9287 32.4133 30.1219 32.4133ZM28.5403 23.316C28.5403 23.8481 28.1948 24.3008 27.7165 24.4623V22.1697C28.1948 22.3312 28.5403 22.7839 28.5403 23.316ZM26.1205 23.316C26.1205 22.7838 26.4659 22.3312 26.9442 22.1696V24.4622C26.4659 24.3008 26.1205 23.8481 26.1205 23.316ZM27.3306 39.2277C26.4711 39.2277 25.7508 38.6216 25.5736 37.8146H29.0876C28.9104 38.6216 28.1902 39.2277 27.3306 39.2277ZM29.2118 34.7278C28.9985 34.7278 28.8256 34.9008 28.8256 35.114C28.8256 35.3272 28.9985 35.5001 29.2118 35.5001H30.1219C30.5029 35.5001 30.8129 35.8101 30.8129 36.1911V36.3513C30.8129 36.7323 30.5029 37.0423 30.1219 37.0423H24.5394C24.1584 37.0423 23.8484 36.7323 23.8484 36.3513V36.1911C23.8484 35.8101 24.1584 35.5001 24.5394 35.5001H27.9245C28.1378 35.5001 28.3106 35.3272 28.3106 35.114C28.3106 34.9008 28.1378 34.7278 27.9245 34.7278H24.5394C24.1584 34.7278 23.8484 34.4179 23.8484 34.0369V33.8767C23.8484 33.4956 24.1584 33.1857 24.5394 33.1857H24.8426C24.8461 33.1857 24.8495 33.1859 24.853 33.1859H27.3304C27.3321 33.1859 27.3337 33.1857 27.3354 33.1857H30.1219C30.5029 33.1857 30.8129 33.4956 30.8129 33.8767V34.0369C30.8129 34.4179 30.5029 34.7278 30.1219 34.7278H29.2118Z" fill="black"/>
<path d="M35.8901 21.1049L33.7976 20.7286C33.5504 20.1111 33.2173 19.535 32.8044 19.0113L33.5254 17.0084C33.5887 16.8326 33.517 16.6367 33.3551 16.5432L30.1832 14.7119C30.0212 14.6184 29.8157 14.6544 29.6951 14.7972L28.1819 16.5888C28.0444 16.7517 28.0649 16.9953 28.2278 17.1329C28.3907 17.2705 28.6343 17.25 28.7719 17.087L30.0767 15.5421L32.6894 17.0505L32.0038 18.955C31.9571 19.0845 31.983 19.229 32.0716 19.3344C32.5403 19.8916 32.9038 20.52 33.1517 21.202C33.1987 21.3312 33.3109 21.4257 33.4462 21.4501L35.4356 21.8079V24.8243L33.4462 25.1825C33.3109 25.2069 33.1987 25.3014 33.1517 25.4306C32.904 26.1117 32.5406 26.7401 32.0715 27.2984C31.9829 27.4036 31.9571 27.5482 32.0038 27.6776L32.6893 29.5815L30.0766 31.0899L28.7719 29.5454C28.6343 29.3824 28.3907 29.362 28.2278 29.4996C28.0649 29.6372 28.0444 29.8808 28.182 30.0437L29.6951 31.8349C29.7707 31.9243 29.8796 31.9719 29.9902 31.9719C30.0562 31.9719 30.1227 31.955 30.1831 31.9201L33.3551 30.0888C33.517 29.9954 33.5886 29.7994 33.5254 29.6236L32.8043 27.6212C33.2174 27.0968 33.5506 26.5209 33.7976 25.9039L35.8902 25.5271C36.0741 25.494 36.2079 25.3339 36.2079 25.1471V21.485C36.208 21.2981 36.0741 21.138 35.8901 21.1049Z" fill="black"/>
<path d="M28.3498 26.2348C28.1485 26.3051 28.0421 26.5253 28.1125 26.7266C28.168 26.8859 28.3174 26.9856 28.477 26.9856C28.5192 26.9856 28.5621 26.9787 28.6043 26.9639C30.1529 26.4234 31.1933 24.9575 31.1933 23.3162C31.1933 21.6748 30.1529 20.2089 28.6043 19.6684C28.403 19.5981 28.1827 19.7044 28.1125 19.9058C28.0422 20.1071 28.1485 20.3273 28.3498 20.3975C29.5886 20.8299 30.4211 22.0028 30.4211 23.3162C30.421 24.6294 29.5886 25.8024 28.3498 26.2348Z" fill="black"/>
<path d="M17.02 21.6516C17.2005 21.6516 17.3618 21.5244 17.3984 21.3407C17.4399 21.1315 17.3042 20.9283 17.0949 20.8867L14.2536 20.3215C14.0442 20.2798 13.8411 20.4157 13.7995 20.6249C13.758 20.8341 13.8937 21.0373 14.103 21.0789L16.9443 21.6441C16.9697 21.6491 16.995 21.6516 17.02 21.6516Z" fill="black"/>
<path d="M16.994 14.7649L19.1707 16.674C19.244 16.7383 19.3348 16.7699 19.4251 16.7699C19.5324 16.7699 19.6393 16.7254 19.7156 16.6383C19.8562 16.478 19.8403 16.234 19.6799 16.0934L17.5031 14.1843C17.3428 14.0437 17.0988 14.0597 16.9582 14.22C16.8177 14.3803 16.8336 14.6243 16.994 14.7649Z" fill="black"/>
<path d="M20.6525 30.9304C20.4922 30.7898 20.2482 30.8058 20.1076 30.9661L18.1983 33.1434C18.0577 33.3037 18.0737 33.5477 18.2341 33.6883C18.3074 33.7526 18.3982 33.7841 18.4885 33.7841C18.5958 33.7841 18.7026 33.7397 18.779 33.6526L20.6882 31.4754C20.8288 31.315 20.8129 31.071 20.6525 30.9304Z" fill="black"/>
<path d="M17.25 26.3302L14.5084 27.2611C14.3065 27.3296 14.1984 27.5489 14.2669 27.7508C14.3215 27.9116 14.4716 28.013 14.6325 28.013C14.6736 28.013 14.7155 28.0063 14.7567 27.9924L17.4982 27.0615C17.7001 26.993 17.8083 26.7737 17.7398 26.5718C17.6713 26.3699 17.452 26.2618 17.25 26.3302Z" fill="black"/>
<path d="M47.8101 24.2368C46.7867 24.0809 45.7388 24 44.6719 24C33.2551 24 24 33.2552 24 44.6719C24 45.7388 24.0809 46.7867 24.2368 47.8101L47.8101 24.2368Z" fill="white"/>
</g>
<defs>
<clipPath id="clip0">
<rect width="54" height="54" fill="white"/>
</clipPath>
</defs>
</svg>
