<svg width="54" height="54" viewBox="0 0 54 54" fill="none" xmlns="http://www.w3.org/2000/svg">
<g clip-path="url(#clip0)">
<path d="M27 54C41.9117 54 54 41.9117 54 27C54 12.0883 41.9117 0 27 0C12.0883 0 0 12.0883 0 27C0 41.9117 12.0883 54 27 54Z" fill="#07A3E9"/>
<path d="M54 27C54 26.3273 53.9746 25.6605 53.9262 25.0002L43.5865 14.6605L12.1494 41.3786L24.6695 53.8987C25.4378 53.9646 26.2147 54 27 54C41.9117 54 54 41.9117 54 27Z" fill="#1177A5"/>
<path fill-rule="evenodd" clip-rule="evenodd" d="M47.7816 23.9599L23.9599 47.7816C13.8026 46.3086 6 37.5655 6 27C6 15.402 15.402 6 27 6C37.5655 6 46.3086 13.8026 47.7816 23.9599Z" fill="#FFAD61"/>
<path d="M29.871 30.9678H26C26.2633 30.9678 26.5226 30.991 26.7742 31.0336C28.973 31.4013 30.6452 33.3097 30.6452 35.6129H34.5162L32.1936 34.4516L32.5807 33.6775L31.0323 32.5162L30.6452 31.0336C30.3936 30.991 30.1342 30.9678 29.871 30.9678Z" fill="#B4DD7F"/>
<path d="M30.6452 31.0336L31.0323 32.5162L32.5807 33.6775L32.1936 34.4517L34.5162 35.613C34.5162 33.3098 32.8439 31.4014 30.6452 31.0336Z" fill="#A0D468"/>
<path d="M25.2258 30.9678C24.7342 31.2155 24.3316 31.5949 24.0645 32.0516C24.3122 32.4736 24.4516 32.9613 24.4516 33.4723V35.6129H26H30.6451L28.3226 34.4516L28.7097 33.6775L27.1613 32.5162L26.7742 31.0336C26.5226 30.991 26.2632 30.9678 26 30.9678H25.2258Z" fill="#FCD770"/>
<path d="M26.7742 31.0336L27.1613 32.5162L28.7097 33.6775L28.3226 34.4517L30.6451 35.613C30.6451 33.3098 28.9729 31.4014 26.7742 31.0336Z" fill="#FFC729"/>
<path d="M22.9032 30.9678H22.129C21.8658 30.9678 21.6064 30.991 21.3548 31.0336V32.5162L19.4193 33.6775L19.8064 34.4516L17.4839 35.6129H22.129H24.4516V33.4723C24.4516 32.9613 24.3122 32.4736 24.0645 32.0516C23.7935 31.5949 23.3948 31.2155 22.9032 30.9678Z" fill="#E6E9ED"/>
<path d="M17.4839 35.613L19.8065 34.4517L19.4194 33.6775L21.3549 32.5162V31.0336C20.3794 31.1962 19.5084 31.6607 18.8426 32.3265C18.0026 33.1665 17.4839 34.3278 17.4839 35.613Z" fill="#CCD1D9"/>
<path d="M35.7239 21.2439L36.5175 20.4504C36.6297 20.3381 36.7149 20.2065 36.7691 20.0594C36.8155 19.9394 36.8387 19.8078 36.8387 19.6762C36.8387 19.0723 36.3471 18.5807 35.7433 18.5807H31.0904C30.6452 18.5807 30.2155 18.631 29.8013 18.7239C31.6246 19.2039 32.9678 20.8646 32.9678 22.8388C32.9678 23.0517 32.7936 23.2258 32.5807 23.2258H34.9033C35.2246 23.2258 35.5149 23.0942 35.7239 22.8852C35.9329 22.6762 36.0646 22.3858 36.0646 22.0646C36.0646 21.7433 35.9329 21.4529 35.7239 21.2439Z" fill="#160C02"/>
<path d="M36.0645 22.0645V22.4516H36.5174C36.8194 22.4516 37.0942 22.3278 37.2916 22.1304C37.489 21.9329 37.6129 21.6581 37.6129 21.3562C37.6129 21.0658 37.4968 20.7871 37.2916 20.582L36.769 20.0594C36.7149 20.2065 36.6297 20.3381 36.5174 20.4504L35.7239 21.2439C35.9329 21.4529 36.0645 21.7433 36.0645 22.0645Z" fill="#160C02"/>
<path d="M31.4194 23.4349C31.6478 23.2994 31.911 23.2258 32.1936 23.2258H32.5807C32.7936 23.2258 32.9678 23.0517 32.9678 22.8388C32.9678 20.8646 31.6245 19.2039 29.8013 18.7239C29.4529 18.631 29.0891 18.5807 28.7097 18.5807H26.4452C25.6245 18.5807 24.8504 18.7471 24.142 19.0491H24.1381C24.0413 19.1575 23.9368 19.2581 23.8284 19.3549C24.7071 19.862 25.4465 20.5897 25.9613 21.4607C26.3252 22.0723 26.5768 22.7536 26.6929 23.4813H26.6968C26.9407 23.3188 27.2349 23.2258 27.5484 23.2258H30.2581C30.5794 23.2258 30.8697 23.0942 31.0787 22.8852C31.2878 22.6762 31.4194 22.3858 31.4194 22.0646V23.4349Z" fill="#656565"/>
<path d="M15.9355 19.3548V17.8065C16.609 18.2555 17.3832 18.5187 18.1884 18.569H18.1922C18.4051 18.8865 18.6684 19.1768 18.9703 19.4323L19.8064 20.129V21.6774C19.8064 22.1032 19.9806 22.4903 20.2593 22.7729C20.5419 23.0516 20.929 23.2258 21.3548 23.2258C22.2103 23.2258 22.9032 22.5329 22.9032 21.6774V20.129L23.7393 19.4323C23.7703 19.4052 23.7974 19.3819 23.8284 19.3548C24.7071 19.8619 25.4464 20.5897 25.9613 21.4607C26.3251 22.0723 26.5768 22.7536 26.6929 23.4813C26.7471 23.7948 26.7742 24.1123 26.7742 24.4413C26.7742 25.9007 26.2322 27.3058 25.249 28.3858L24.0645 29.6903L22.9032 30.9677L22.5626 30.5419C22.1716 30.0542 21.8697 29.5045 21.6645 28.9239C21.4632 28.3432 21.3548 27.7239 21.3548 27.0968H21.7419C22.0632 27.0968 22.3535 26.9652 22.5626 26.7561C22.7716 26.5471 22.9032 26.2568 22.9032 25.9355C22.9032 25.2929 22.3845 24.7742 21.7419 24.7742H21.3548C21.3548 24.031 20.8322 23.4116 20.1355 23.2607C20.0309 23.2374 19.9187 23.2258 19.8064 23.2258H17.0968C16.7755 23.2258 16.4851 23.0942 16.2761 22.8852C16.0671 22.6761 15.9355 22.3858 15.9355 22.0645V23.0942C15.0335 22.7729 14.3871 21.9136 14.3871 20.9032V18.9677L15.9355 19.3548Z" fill="#160C02"/>
<path d="M32.1936 23.2259C31.911 23.2259 31.6478 23.2994 31.4194 23.4349V24.453C31.4194 25.1536 31.6981 25.8272 32.1936 26.3226L31.4194 27.0968V28.6452V29.4194C31.4194 30.2749 30.7265 30.9678 29.871 30.9678H34.5162C35.3716 30.9678 36.0646 30.2749 36.0646 29.4194V28.6452V27.0968L36.8387 26.3226C36.3433 25.8272 36.0646 25.1536 36.0646 24.453V22.4517V22.0646C36.0646 22.3859 35.9329 22.6762 35.7239 22.8852C35.5149 23.0943 35.2246 23.2259 34.9033 23.2259H32.5807H32.1936Z" fill="#FFDEC1"/>
<path d="M26.7743 24.4413C26.7743 25.9007 26.2323 27.3059 25.2491 28.3859L24.0646 29.6904L25.2259 30.9678H26.0001H29.871C30.7265 30.9678 31.4194 30.2749 31.4194 29.4194V28.6452V27.0968L32.1936 26.3226C31.6981 25.8272 31.4194 25.1536 31.4194 24.453V23.4349V22.0646C31.4194 22.3859 31.2878 22.6762 31.0788 22.8852C30.8697 23.0943 30.5794 23.2259 30.2581 23.2259H27.5484C27.2349 23.2259 26.9407 23.3188 26.6968 23.4813H26.693C26.7472 23.7949 26.7743 24.1123 26.7743 24.4413Z" fill="#FFDEC1"/>
<path d="M15.9355 23.0943V24.453C15.9355 25.1536 15.6568 25.8272 15.1613 26.3226L15.9355 27.0968V27.871H18.2581C18.2581 28.2968 18.0839 28.6839 17.8052 28.9665C17.5226 29.2452 17.1355 29.4194 16.7097 29.4194H15.9355C15.9355 30.2749 16.6284 30.9678 17.4839 30.9678H22.1291H22.9033L22.5626 30.542C22.1716 30.0543 21.8697 29.5046 21.6646 28.9239C21.4633 28.3433 21.3549 27.7239 21.3549 27.0968H21.742C22.0633 27.0968 22.3536 26.9652 22.5626 26.7562C22.7716 26.5472 22.9033 26.2568 22.9033 25.9355C22.9033 25.293 22.3845 24.7743 21.742 24.7743H21.3549C21.3549 24.031 20.8323 23.4117 20.1355 23.2607C20.031 23.2375 19.9187 23.2259 19.8065 23.2259H17.0968C16.7755 23.2259 16.4852 23.0943 16.2762 22.8852C16.0671 22.6762 15.9355 22.3859 15.9355 22.0646V23.0943Z" fill="#FFDEC1"/>
<path d="M22.9033 21.6775H19.8065C19.8065 22.1033 19.9807 22.4904 20.2594 22.773C20.542 23.0517 20.9291 23.2259 21.3549 23.2259C22.2104 23.2259 22.9033 22.533 22.9033 21.6775Z" fill="#AAB2BD"/>
<path d="M19.8065 20.1291V21.6775H22.9033V20.1291H22.1291H20.5807H19.8065Z" fill="#CCD1D9"/>
<path d="M20.5807 20.1291H22.1291H22.9032L23.7394 19.4323C23.7703 19.4052 23.7974 19.382 23.8284 19.3549C23.9368 19.2581 24.0413 19.1575 24.1381 19.0491H24.142C24.4245 18.7394 24.6607 18.391 24.8349 18.0117C25.0903 17.4697 25.2258 16.8697 25.2258 16.2581C25.2258 15.1897 24.7923 14.222 24.0916 13.5213C23.391 12.8207 22.4232 12.3871 21.3549 12.3871C20.2865 12.3871 19.3187 12.8207 18.6181 13.5213C17.9174 14.222 17.4839 15.1897 17.4839 16.2581C17.4839 17.0904 17.7355 17.8917 18.1884 18.5691H18.1923C18.4052 18.8865 18.6684 19.1768 18.9703 19.4323L19.8065 20.1291H20.5807Z" fill="#FFEF61"/>
<path d="M15.9355 27.871V29.4194H16.7097C17.1355 29.4194 17.5226 29.2452 17.8052 28.9665C18.0839 28.6839 18.2581 28.2968 18.2581 27.871H15.9355Z" fill="#FF826E"/>
<path d="M18.2581 26.3226C17.8305 26.3226 17.4839 25.976 17.4839 25.5484C17.4839 25.1208 17.8305 24.7742 18.2581 24.7742C18.6857 24.7742 19.0323 25.1208 19.0323 25.5484C19.0323 25.976 18.6857 26.3226 18.2581 26.3226Z" fill="white"/>
<path d="M14 20.9032V18.4719L15.5484 18.859V17.0834L16.1503 17.4844C16.5556 17.7546 17.0062 17.9439 17.4761 18.0608C17.2315 17.4991 17.0968 16.8883 17.0968 16.2581C17.0968 13.9103 19.0071 12 21.3548 12C23.7026 12 25.6129 13.9103 25.6129 16.2581C25.6129 16.9955 25.429 17.7058 25.0981 18.3418C25.537 18.2454 25.9861 18.1932 26.444 18.1932H28.7097C29.0879 18.1932 29.4541 18.2439 29.8063 18.3294C30.2255 18.2419 30.656 18.1932 31.0888 18.1932L35.744 18.1935C36.5608 18.1935 37.2258 18.8586 37.2258 19.6754C37.2258 19.7659 37.2157 19.855 37.1999 19.9425L37.5661 20.3086C37.8459 20.5889 38 20.9609 38 21.3569C38 22.1737 37.335 22.8387 36.5182 22.8387H36.4516V24.4537C36.4516 25.0475 36.6924 25.6289 37.1124 26.0489L37.3861 26.3226L36.4516 27.257V29.4194C36.4516 30.4866 35.5834 31.3548 34.5161 31.3548H32.5404C33.9568 32.2463 34.9032 33.8195 34.9032 35.6129V36H17.0968V35.6129C17.0968 33.8195 18.0432 32.2463 19.4596 31.3548H17.4839C16.4166 31.3548 15.5484 30.4866 15.5484 29.4194V27.257L14.6139 26.3226L14.8876 26.0489C15.3076 25.6289 15.5484 25.0475 15.5484 24.4537V23.3439C14.6139 22.8987 14 21.9546 14 20.9032ZM16.3226 18.4719V19.8511L14.7742 19.464V20.9032C14.7742 21.5222 15.0707 22.0912 15.5484 22.4505V22.0645C15.5484 21.2106 16.2428 20.5161 17.0968 20.5161V21.2903C16.6698 21.2903 16.3226 21.6375 16.3226 22.0645C16.3226 22.4915 16.6698 22.8387 17.0968 22.8387H19.8065C19.8099 22.8387 19.8134 22.8395 19.8173 22.8395C19.5711 22.5151 19.4194 22.1152 19.4194 21.6774V20.3106L18.7226 19.7303C18.4396 19.4942 18.193 19.2259 17.9794 18.936C17.4041 18.8764 16.8425 18.7219 16.3226 18.4719ZM21.7566 27.4839C21.8348 28.5081 22.2219 29.4964 22.8657 30.3015L22.9218 30.3716L24.963 28.1265C25.8812 27.1165 26.3871 25.8081 26.3871 24.4432C26.3871 22.5774 25.4255 20.8363 23.8628 19.8333L23.2903 20.3106V21.6774C23.2903 22.7446 22.4221 23.6129 21.3548 23.6129C21.3514 23.6129 21.3483 23.6117 21.3448 23.6117C21.5163 23.8382 21.644 24.0991 21.7028 24.3871H21.7419C22.5959 24.3871 23.2903 25.0815 23.2903 25.9355C23.2903 26.784 22.604 27.4757 21.7566 27.4839ZM21.7419 31.3734V32.7356L19.9261 33.8249L20.3259 34.6246L19.1236 35.2258H21.7419V33.6774H22.5161V35.2258H24.0645V33.473C24.0645 32.58 23.5799 31.7779 22.7995 31.3548H22.129C21.9986 31.3548 21.8697 31.3618 21.7419 31.3734ZM26.3871 33.6774V35.2258H29.0054L27.8035 34.6246L28.2192 33.7932L26.821 32.7449L26.4657 31.3815C26.3124 31.3649 26.1572 31.3548 26 31.3548H25.3299C25.0052 31.531 24.7292 31.7775 24.5159 32.0772C24.723 32.5034 24.8387 32.9772 24.8387 33.473V35.2258H25.6129V33.6774H26.3871ZM32.0898 33.7932L30.6916 32.7449L30.3363 31.3823C30.1834 31.3657 30.0285 31.3548 29.871 31.3548H28.6694C29.9828 32.1813 30.8875 33.5942 31.0125 35.2258H32.876L31.6741 34.6246L32.0898 33.7932ZM31.0323 29.4194V29.0323H30.2581C29.4041 29.0323 28.7097 28.3378 28.7097 27.4839H29.4839C29.4839 27.9108 29.8311 28.2581 30.2581 28.2581H31.0323V26.9365L31.664 26.3048C31.2591 25.7779 31.0323 25.1214 31.0323 24.4537V23.3977C30.8035 23.5308 30.5414 23.6129 30.2581 23.6129H27.5484C27.3978 23.6129 27.2515 23.6443 27.1145 23.6996C27.1439 23.945 27.1613 24.1928 27.1613 24.4432C27.1613 26.0013 26.5841 27.4947 25.5363 28.6475L24.5879 29.6903L25.3973 30.5806H29.871C30.5112 30.5806 31.0323 30.0596 31.0323 29.4194ZM24.0684 31.3912C24.2333 31.2004 24.4175 31.0274 24.6231 30.8806L24.0645 30.2659L23.5067 30.8795C23.7157 31.0285 23.9039 31.2008 24.0684 31.3912ZM28.8421 34.2786L30.2027 34.9587C29.9546 33.3608 28.8188 32.0539 27.3134 31.5643L27.5019 32.2874L29.2005 33.5617L28.8421 34.2786ZM22.5161 20.5161H20.1935V21.2903H22.5161V20.5161ZM21.3548 22.8387C21.8588 22.8387 22.2846 22.5139 22.4449 22.0645H20.2652C20.425 22.5139 20.8508 22.8387 21.3548 22.8387ZM21.3548 12.7742C19.4337 12.7742 17.871 14.3369 17.871 16.2581C17.871 17.3729 18.3622 18.4215 19.2181 19.1354L19.9466 19.7419H20.1935V16.2581C20.1935 16.0444 20.0201 15.871 19.8065 15.871C19.5928 15.871 19.4194 16.0444 19.4194 16.2581V16.6452H18.6452V16.2581C18.6452 15.6178 19.1662 15.0968 19.8065 15.0968C20.4467 15.0968 20.9677 15.6178 20.9677 16.2581V19.7419H21.7419V16.2581C21.7419 15.6178 22.263 15.0968 22.9032 15.0968C23.5435 15.0968 24.0645 15.6178 24.0645 16.2581V16.6452H23.2903V16.2581C23.2903 16.0444 23.1169 15.871 22.9032 15.871C22.6895 15.871 22.5161 16.0444 22.5161 16.2581V19.7419H22.7631L23.4912 19.1354C24.3475 18.4215 24.8387 17.3729 24.8387 16.2581C24.8387 14.3369 23.276 12.7742 21.3548 12.7742ZM26.4436 18.9674C25.7708 18.9674 25.119 19.0935 24.4992 19.3293C25.7341 20.1975 26.6074 21.4823 26.9705 22.9277C27.1566 22.8701 27.3506 22.8387 27.5484 22.8387H30.2581C30.685 22.8387 31.0323 22.4915 31.0323 22.0645C31.0323 21.6375 30.685 21.2903 30.2581 21.2903V20.5161C31.112 20.5161 31.8065 21.2106 31.8065 22.0645V22.8817C31.9334 22.8557 32.0627 22.8387 32.1935 22.8387H32.5806C32.5806 20.7043 30.8441 18.9677 28.7097 18.9674H26.4436ZM35.744 18.9677L31.2715 18.9674C32.5257 19.8004 33.3548 21.2237 33.3548 22.8387H34.9032C35.3302 22.8387 35.6774 22.4915 35.6774 22.0645C35.6774 21.6375 35.3302 21.2903 34.9032 21.2903V20.5161C35.1897 20.5161 35.4545 20.5994 35.6848 20.7356L36.2445 20.1759C36.3761 20.0443 36.4516 19.8619 36.4516 19.6754C36.4516 19.2852 36.1342 18.9677 35.744 18.9677ZM36.5182 22.0645C36.9084 22.0645 37.2258 21.7471 37.2258 21.3569C37.2258 21.1707 37.1503 20.988 37.0187 20.8564L36.8341 20.6717C36.819 20.6884 36.8077 20.7074 36.7919 20.7232L36.2321 21.283C36.3684 21.5133 36.4516 21.7781 36.4516 22.0645H36.5182ZM35.6774 29.4194V29.0323H34.9032C34.0493 29.0323 33.3548 28.3378 33.3548 27.4839H34.129C34.129 27.9108 34.4763 28.2581 34.9032 28.2581H35.6774V26.9365L36.3092 26.3048C35.9043 25.7779 35.6774 25.1214 35.6774 24.4537V23.3977C35.4486 23.5308 35.1866 23.6129 34.9032 23.6129H32.1935C32.0596 23.6129 31.9307 23.6439 31.8065 23.688V24.4537C31.8065 25.0475 32.0472 25.6289 32.4672 26.0489L32.7409 26.3226L31.8065 27.257V29.4194C31.8065 29.8568 31.6551 30.2563 31.4093 30.5806H34.5161C35.1564 30.5806 35.6774 30.0596 35.6774 29.4194ZM31.1848 31.5662L31.3729 32.2874L33.0715 33.5617L32.713 34.2786L34.0748 34.9595C33.8271 33.3612 32.6898 32.0563 31.1848 31.5662ZM17.9252 34.9595L19.287 34.2786L18.9126 33.5299L20.9677 32.297V31.5174C19.3868 31.9664 18.1814 33.3074 17.9252 34.9595ZM16.7097 29.0323C17.2145 29.0323 17.6449 28.7086 17.8048 28.2581H16.3226V29.0323H16.7097ZM16.3226 26.9365V27.4839H18.6452V27.871C18.6452 28.9382 17.7769 29.8065 16.7097 29.8065H16.3938C16.5541 30.2559 16.9799 30.5806 17.4839 30.5806H22.1112C21.375 29.5726 20.9677 28.3475 20.9677 27.0968V26.7097H21.7419C22.1689 26.7097 22.5161 26.3625 22.5161 25.9355C22.5161 25.5085 22.1689 25.1613 21.7419 25.1613H20.9677V24.7742C20.9677 24.1339 20.4467 23.6129 19.8065 23.6129H17.0968C16.8134 23.6129 16.5514 23.5308 16.3226 23.3977V24.4537C16.3226 25.1218 16.0957 25.7779 15.6908 26.3048L16.3226 26.9365Z" fill="black"/>
<path d="M18.2581 24.3871C18.8983 24.3871 19.4194 24.9081 19.4194 25.5484C19.4194 26.1886 18.8983 26.7097 18.2581 26.7097C17.6178 26.7097 17.0968 26.1886 17.0968 25.5484C17.0968 24.9081 17.6178 24.3871 18.2581 24.3871ZM18.2581 25.9355C18.4718 25.9355 18.6452 25.7621 18.6452 25.5484C18.6452 25.3347 18.4718 25.1613 18.2581 25.1613C18.0444 25.1613 17.871 25.3347 17.871 25.5484C17.871 25.7621 18.0444 25.9355 18.2581 25.9355Z" fill="black"/>
<path d="M32.5807 24.3871H33.3549V24.7742C33.3549 24.9879 33.5283 25.1613 33.742 25.1613C33.9556 25.1613 34.1291 24.9879 34.1291 24.7742V24.3871H34.9033V24.7742C34.9033 25.4144 34.3822 25.9355 33.742 25.9355C33.1017 25.9355 32.5807 25.4144 32.5807 24.7742V24.3871Z" fill="black"/>
<path d="M28.7097 24.7742C28.7097 24.9879 28.8831 25.1613 29.0968 25.1613C29.3104 25.1613 29.4839 24.9879 29.4839 24.7742V24.3871H30.2581V24.7742C30.2581 25.4144 29.737 25.9355 29.0968 25.9355C28.4565 25.9355 27.9355 25.4144 27.9355 24.7742V24.3871H28.7097V24.7742Z" fill="black"/>
<path d="M47.8101 24.2368C46.7867 24.0809 45.7388 24 44.6719 24C33.2551 24 24 33.2552 24 44.6719C24 45.7388 24.0809 46.7867 24.2368 47.8101L47.8101 24.2368Z" fill="white"/>
</g>
<defs>
<clipPath id="clip0">
<rect width="54" height="54" fill="white"/>
</clipPath>
</defs>
</svg>
