<svg width="54" height="54" viewBox="0 0 54 54" fill="none" xmlns="http://www.w3.org/2000/svg">
<g clip-path="url(#clip0)">
<path d="M27 54C41.9117 54 54 41.9117 54 27C54 12.0883 41.9117 0 27 0C12.0883 0 0 12.0883 0 27C0 41.9117 12.0883 54 27 54Z" fill="#07A3E9"/>
<path d="M54 27C54 26.3274 53.9746 25.6606 53.9262 25.0003L43.5865 14.6605L12.1494 41.3787L24.6695 53.8988C25.4378 53.9646 26.2147 54.0001 27 54.0001C41.9117 54.0001 54 41.9117 54 27Z" fill="#1177A5"/>
<path fill-rule="evenodd" clip-rule="evenodd" d="M47.7816 23.9599L23.9599 47.7816C13.8026 46.3086 6 37.5655 6 27C6 15.402 15.402 6 27 6C37.5655 6 46.3086 13.8026 47.7816 23.9599Z" fill="#FFAD61"/>
<g clip-path="url(#clip1)">
<path d="M32.7858 37.0411L33.2254 36.7983C36.8114 34.8182 39.1909 31.1979 39.5864 27.1207C39.6296 26.6747 39.2698 26.2929 38.822 26.3097L38.8017 26.3105C38.345 26.3277 37.9589 26.643 37.8517 27.0829L37.4123 28.8873C36.9674 30.7141 35.7331 32.2483 34.044 33.0741C33.3468 33.4149 32.5572 32.8215 32.6907 32.0571L33.0376 30.0703C33.103 29.6956 32.8577 29.3371 32.4847 29.2624C32.2015 29.2057 31.9125 29.3285 31.7567 29.5718L29.243 33.4984L29.2855 34.6032L31.7198 37.0375L32.7858 37.0411Z" fill="#FFE6C0"/>
<path d="M32.283 29.3716L31.9361 31.3584C31.8399 31.9091 32.2229 32.3709 32.7051 32.4588C32.6731 32.3339 32.666 32.1985 32.6907 32.0571L33.0376 30.0703C33.103 29.6956 32.8577 29.3371 32.4847 29.2624C32.4205 29.2496 32.356 29.2464 32.2929 29.2513C32.2928 29.2911 32.29 29.3311 32.283 29.3716Z" fill="#FFCBBE"/>
<path d="M38.8332 26.3099C38.8352 26.3467 38.8354 26.3839 38.8317 26.4219C38.4363 30.4991 36.0567 34.1194 32.4708 36.0995L32.0311 36.3423L31.0212 36.3389L31.7198 37.0374L32.7857 37.0411L33.2254 36.7982C36.8113 34.8182 39.1909 31.1979 39.5863 27.1207C39.6292 26.6785 39.2757 26.2999 38.8332 26.3099Z" fill="#FFCBBE"/>
<path d="M31.4938 39.5899L33.1223 37.9614C33.2835 37.8002 33.2835 37.5389 33.1223 37.3777L28.9775 33.2328C28.8163 33.0716 28.555 33.0716 28.3938 33.2328L26.7653 34.8614L31.4938 39.5899Z" fill="#CFE3FF"/>
<path d="M33.1224 37.3776L28.9775 33.2327C28.8164 33.0715 28.555 33.0715 28.3938 33.2327L28.0674 33.5591L31.8004 37.2921C31.9615 37.4533 31.9615 37.7146 31.8004 37.8758L30.7901 38.886L31.4939 39.5898L33.1224 37.9612C33.2836 37.8001 33.2836 37.5388 33.1224 37.3776Z" fill="#80B4FB"/>
<path d="M19.2143 37.041L18.7746 36.7982C15.1887 34.8181 12.8092 31.1978 12.4137 27.1207C12.3705 26.6747 12.7303 26.2929 13.1781 26.3097L13.1984 26.3105C13.6551 26.3277 14.0412 26.643 14.1484 27.0829L14.5878 28.8873C15.0327 30.714 16.267 32.2483 17.9561 33.0741C18.6532 33.4149 19.4429 32.8215 19.3094 32.0571L18.9625 30.0703C18.8971 29.6956 19.1424 29.3371 19.5154 29.2624C19.7986 29.2057 20.0876 29.3285 20.2434 29.5718L22.757 33.4984L22.7146 34.6031L20.2803 37.0375L19.2143 37.041Z" fill="#FFE6C0"/>
<path d="M12.481 26.9676L12.5013 26.9684C12.958 26.9856 13.3441 27.3008 13.4513 27.7408L13.8907 29.5452C14.3356 31.3719 15.5699 32.9062 17.259 33.732C17.8167 34.0047 18.433 33.6792 18.5892 33.1469C18.3886 33.1946 18.1682 33.1778 17.9561 33.0741C16.267 32.2483 15.0327 30.7141 14.5878 28.8873L14.1484 27.0829C14.0412 26.643 13.6551 26.3277 13.1984 26.3105L13.1781 26.3097C12.7823 26.2949 12.4557 26.5917 12.415 26.9688C12.4368 26.9677 12.4587 26.9668 12.481 26.9676Z" fill="#FFCBBE"/>
<path d="M20.2433 29.5717C20.0876 29.3285 19.7985 29.2056 19.5153 29.2624C19.1972 29.3261 18.9726 29.5964 18.9539 29.9071C19.1904 29.9064 19.4153 30.0252 19.5462 30.2296L22.0598 34.1561L22.0174 35.2609L20.2409 37.0374L20.2802 37.0373L22.7145 34.603L22.7569 33.4982L20.2433 29.5717Z" fill="#FFCBBE"/>
<path d="M20.5062 39.5899L18.8777 37.9614C18.7165 37.8002 18.7165 37.5389 18.8777 37.3777L23.0226 33.2328C23.1837 33.0716 23.4451 33.0716 23.6063 33.2328L25.2348 34.8614L20.5062 39.5899Z" fill="#CFE3FF"/>
<path d="M19.1788 38.2625L22.9371 34.5043C23.0982 34.3431 23.3596 34.3431 23.5207 34.5043L24.5563 35.5399L25.2348 34.8613L23.6063 33.2328C23.4451 33.0716 23.1837 33.0716 23.0226 33.2328L18.8777 37.3777C18.7165 37.539 18.7165 37.8003 18.8777 37.9614L19.1788 38.2625Z" fill="#80B4FB"/>
<path d="M30.5823 16.0635L31.1277 16.3658C31.2672 16.4431 31.3537 16.59 31.3537 16.7494V18.1765C31.3537 18.3359 31.2672 18.4828 31.1277 18.5601L30.5823 18.8624C30.5127 18.901 30.4549 18.9578 30.4151 19.0267L29.5619 20.5046C29.522 20.5735 29.5018 20.652 29.5032 20.7315L29.5141 21.3551C29.5169 21.5145 29.4329 21.6629 29.2948 21.7425L28.0589 22.456C27.9209 22.5358 27.7504 22.5342 27.6138 22.4522L27.0792 22.131C27.011 22.09 26.9329 22.0684 26.8534 22.0684H25.1468C25.0673 22.0684 24.9892 22.09 24.921 22.131L24.3864 22.4522C24.2497 22.5342 24.0793 22.5358 23.9412 22.456L22.7054 21.7425C22.5673 21.6628 22.4833 21.5145 22.4861 21.3551L22.497 20.7315C22.4984 20.652 22.4781 20.5735 22.4383 20.5046L21.5851 19.0267C21.5453 18.9578 21.4875 18.901 21.4179 18.8624L20.8725 18.5601C20.733 18.4828 20.6465 18.3359 20.6465 18.1765V16.7495C20.6465 16.59 20.733 16.4432 20.8725 16.3659L21.4179 16.0635C21.4875 16.0249 21.5453 15.9681 21.5851 15.8992L22.4383 14.4214C22.4781 14.3525 22.4984 14.274 22.497 14.1944L22.4861 13.5709C22.4833 13.4114 22.5673 13.2631 22.7054 13.1834L23.9412 12.4699C24.0793 12.3902 24.2498 12.3917 24.3864 12.4738L24.921 12.795C24.9892 12.8359 25.0673 12.8576 25.1468 12.8576H26.8534C26.9329 12.8576 27.011 12.8359 27.0792 12.795L27.6138 12.4738C27.7504 12.3917 27.9209 12.3902 28.0589 12.4699L29.2948 13.1834C29.4329 13.2631 29.5169 13.4114 29.5141 13.5709L29.5032 14.1944C29.5018 14.274 29.5221 14.3525 29.5619 14.4214L30.4151 15.8992C30.4549 15.9681 30.5127 16.0249 30.5823 16.0635ZM26.0001 15.3926C24.8567 15.3926 23.9297 16.3196 23.9297 17.463C23.9297 18.6064 24.8567 19.5333 26.0001 19.5333C27.1435 19.5333 28.0704 18.6064 28.0704 17.463C28.0704 16.3196 27.1435 15.3926 26.0001 15.3926Z" fill="#CFE3FF"/>
<path d="M31.1277 16.365L30.5823 16.0626C30.5127 16.024 30.4549 15.9672 30.4151 15.8983L29.5618 14.4204C29.522 14.3515 29.5017 14.2731 29.5031 14.1935L29.514 13.5699C29.5168 13.4105 29.4329 13.2622 29.2948 13.1825L28.0589 12.4689C27.9209 12.3892 27.7504 12.3907 27.6137 12.4728L27.1586 12.7462L27.9142 13.1825C28.0523 13.2622 28.1362 13.4106 28.1334 13.5699L28.1226 14.1935C28.1212 14.2731 28.1415 14.3515 28.1812 14.4204L29.0345 15.8983C29.0743 15.9672 29.132 16.024 29.2016 16.0626L29.7471 16.365C29.8866 16.4422 29.9731 16.5891 29.9731 16.7485V18.1756C29.9731 18.335 29.8866 18.4819 29.7471 18.5592L29.2016 18.8616C29.132 18.9002 29.0742 18.9569 29.0345 19.0258L28.1812 20.5037C28.1414 20.5726 28.1211 20.6511 28.1226 20.7307L28.1334 21.3542C28.1362 21.5136 28.0523 21.662 27.9142 21.7417L27.1586 22.1779L27.6137 22.4514C27.7504 22.5334 27.9209 22.535 28.0589 22.4552L29.2948 21.7417C29.4329 21.662 29.5169 21.5136 29.5141 21.3543L29.5032 20.7307C29.5018 20.6511 29.5221 20.5727 29.5619 20.5038L30.4152 19.0259C30.455 18.957 30.5127 18.9002 30.5823 18.8616L31.1278 18.5592C31.2672 18.482 31.3538 18.3351 31.3538 18.1757V16.7486C31.3537 16.5891 31.2672 16.4423 31.1277 16.365Z" fill="#80B4FB"/>
<path d="M36.6392 22.7L37.0173 22.9096C37.114 22.9632 37.174 23.065 37.174 23.1755V24.165C37.174 24.2755 37.114 24.3773 37.0173 24.4309L36.6392 24.6405C36.5909 24.6673 36.5508 24.7067 36.5232 24.7545L35.9316 25.7791C35.904 25.8269 35.8899 25.8813 35.8909 25.9365L35.8985 26.3688C35.9004 26.4794 35.8422 26.5822 35.7464 26.6375L34.8896 27.1323C34.7938 27.1876 34.6756 27.1865 34.5809 27.1296L34.2102 26.9069C34.1629 26.8785 34.1088 26.8635 34.0536 26.8635H32.8704C32.8152 26.8635 32.7611 26.8785 32.7138 26.9069L32.3431 27.1296C32.2483 27.1865 32.1301 27.1876 32.0344 27.1323L31.1775 26.6375C31.0818 26.5822 31.0236 26.4794 31.0255 26.3688L31.033 25.9365C31.034 25.8813 31.0199 25.8269 30.9924 25.7791L30.4007 24.7545C30.3732 24.7067 30.3331 24.6673 30.2848 24.6405L29.9066 24.4309C29.81 24.3773 29.75 24.2755 29.75 24.165V23.1755C29.75 23.065 29.81 22.9632 29.9066 22.9096L30.2848 22.7C30.333 22.6732 30.3731 22.6338 30.4007 22.586L30.9924 21.5614C31.0199 21.5136 31.034 21.4592 31.033 21.404L31.0255 20.9717C31.0236 20.8611 31.0818 20.7583 31.1775 20.703L32.0344 20.2082C32.1302 20.1529 32.2484 20.154 32.3431 20.2109L32.7138 20.4336C32.7611 20.462 32.8152 20.477 32.8704 20.477H34.0536C34.1088 20.477 34.1629 20.462 34.2102 20.4336L34.5809 20.2109C34.6757 20.154 34.7938 20.1529 34.8896 20.2082L35.7464 20.703C35.8422 20.7583 35.9004 20.8611 35.8985 20.9717L35.8909 21.404C35.8899 21.4592 35.9041 21.5136 35.9316 21.5614L36.5232 22.586C36.5508 22.6338 36.5909 22.6732 36.6392 22.7ZM33.462 22.2348C32.6692 22.2348 32.0265 22.8775 32.0265 23.6703C32.0265 24.4631 32.6692 25.1058 33.462 25.1058C34.2548 25.1058 34.8975 24.4631 34.8975 23.6703C34.8975 22.8775 34.2548 22.2348 33.462 22.2348Z" fill="#CFE3FF"/>
<path d="M37.0173 22.9096L36.6391 22.7C36.5909 22.6732 36.5508 22.6338 36.5232 22.586L35.9316 21.5614C35.904 21.5136 35.8899 21.4592 35.8909 21.404L35.8985 20.9717C35.9004 20.8611 35.8422 20.7583 35.7465 20.703L34.8896 20.2082C34.7938 20.1529 34.6756 20.154 34.5809 20.2109L34.2654 20.4005L34.7892 20.703C34.8849 20.7583 34.9432 20.8611 34.9412 20.9717L34.9337 21.404C34.9327 21.4592 34.9468 21.5136 34.9743 21.5614L35.566 22.586C35.5936 22.6338 35.6336 22.6732 35.6819 22.7L36.0601 22.9096C36.1567 22.9632 36.2167 23.065 36.2167 23.1756V24.165C36.2167 24.2756 36.1567 24.3774 36.0601 24.431L35.6819 24.6406C35.6336 24.6673 35.5936 24.7067 35.566 24.7545L34.9743 25.7792C34.9468 25.827 34.9327 25.8814 34.9337 25.9365L34.9412 26.3689C34.9431 26.4794 34.8849 26.5823 34.7892 26.6376L34.2654 26.94L34.5809 27.1296C34.6757 27.1866 34.7939 27.1876 34.8896 27.1323L35.7465 26.6376C35.8422 26.5823 35.9004 26.4794 35.8985 26.3689L35.8909 25.9365C35.8899 25.8814 35.904 25.827 35.9316 25.7792L36.5232 24.7545C36.5508 24.7067 36.5909 24.6673 36.6391 24.6406L37.0173 24.431C37.114 24.3774 37.174 24.2756 37.174 24.165V23.1756C37.174 23.0651 37.114 22.9632 37.0173 22.9096Z" fill="#80B4FB"/>
<path d="M21.7152 22.7008L22.0933 22.9104C22.19 22.964 22.25 23.0659 22.25 23.1764V24.1659C22.25 24.2764 22.19 24.3782 22.0933 24.4318L21.7152 24.6414C21.6669 24.6682 21.6269 24.7075 21.5992 24.7553L21.0076 25.78C20.98 25.8278 20.966 25.8822 20.9669 25.9373L20.9745 26.3697C20.9764 26.4802 20.9182 26.5831 20.8225 26.6384L19.9656 27.1331C19.8698 27.1884 19.7516 27.1874 19.6569 27.1305L19.2862 26.9078C19.2389 26.8793 19.1848 26.8644 19.1296 26.8644H17.9464C17.8912 26.8644 17.8371 26.8794 17.7898 26.9078L17.4191 27.1305C17.3243 27.1874 17.2061 27.1884 17.1104 27.1331L16.2536 26.6385C16.1578 26.5832 16.0996 26.4803 16.1016 26.3698L16.1091 25.9375C16.1101 25.8823 16.096 25.8279 16.0684 25.7801L15.4768 24.7554C15.4492 24.7076 15.4092 24.6683 15.3609 24.6415L14.9827 24.4319C14.886 24.3783 14.826 24.2765 14.826 24.166V23.1765C14.826 23.066 14.886 22.9641 14.9827 22.9106L15.3609 22.7009C15.4091 22.6742 15.4492 22.6348 15.4768 22.587L16.0684 21.5623C16.096 21.5145 16.1101 21.4602 16.1091 21.405L16.1016 20.9726C16.0996 20.8621 16.1578 20.7593 16.2536 20.704L17.1105 20.2092C17.2062 20.1539 17.3244 20.155 17.4191 20.2119L17.7898 20.4346C17.8371 20.463 17.8913 20.478 17.9464 20.478H19.1297C19.1848 20.478 19.239 20.463 19.2863 20.4346L19.657 20.2119C19.7517 20.155 19.8699 20.1539 19.9656 20.2092L20.8225 20.704C20.9183 20.7593 20.9765 20.8621 20.9745 20.9726L20.967 21.405C20.966 21.4602 20.9801 21.5145 21.0077 21.5623L21.5993 22.587C21.6269 22.6347 21.6669 22.6741 21.7152 22.7008ZM18.538 22.2357C17.7452 22.2357 17.1026 22.8783 17.1026 23.6711C17.1026 24.464 17.7452 25.1066 18.538 25.1066C19.3308 25.1066 19.9735 24.464 19.9735 23.6711C19.9735 22.8783 19.3308 22.2357 18.538 22.2357Z" fill="#CFE3FF"/>
<path d="M22.0934 22.9096L21.7152 22.7C21.6669 22.6732 21.6269 22.6338 21.5993 22.586L21.0077 21.5614C20.9801 21.5136 20.966 21.4592 20.967 21.404L20.9745 20.9717C20.9765 20.8611 20.9183 20.7583 20.8226 20.703L19.9657 20.2082C19.8699 20.1529 19.7517 20.154 19.657 20.2109L19.3415 20.4005L19.8653 20.703C19.9611 20.7583 20.0193 20.8611 20.0173 20.9717L20.0097 21.404C20.0088 21.4592 20.0229 21.5136 20.0504 21.5614L20.642 22.586C20.6697 22.6338 20.7097 22.6732 20.758 22.7L21.1361 22.9096C21.2328 22.9632 21.2928 23.065 21.2928 23.1756V24.165C21.2928 24.2756 21.2328 24.3774 21.1361 24.431L20.758 24.6406C20.7097 24.6673 20.6697 24.7067 20.642 24.7545L20.0504 25.7792C20.0229 25.827 20.0088 25.8814 20.0097 25.9365L20.0173 26.3689C20.0192 26.4794 19.961 26.5823 19.8653 26.6376L19.3415 26.94L19.657 27.1296C19.7518 27.1866 19.87 27.1876 19.9657 27.1323L20.8226 26.6376C20.9183 26.5823 20.9765 26.4794 20.9745 26.3689L20.967 25.9365C20.966 25.8814 20.9801 25.827 21.0077 25.7792L21.5993 24.7545C21.6269 24.7067 21.6669 24.6673 21.7152 24.6406L22.0934 24.431C22.1901 24.3774 22.2501 24.2756 22.2501 24.165V23.1756C22.2501 23.0651 22.1901 22.9632 22.0934 22.9096Z" fill="#80B4FB"/>
<path d="M38.8069 25.8999L38.7863 25.9007C38.1512 25.9246 37.603 26.3708 37.4532 26.986L37.0138 28.7904C36.5964 30.504 35.4483 31.9311 33.8638 32.7057C33.6778 32.7966 33.4678 32.7767 33.3023 32.6522C33.1367 32.5278 33.0591 32.3317 33.0947 32.1277L33.4416 30.1409C33.5461 29.5422 33.1612 28.9797 32.5652 28.8603C32.1129 28.7698 31.66 28.9621 31.4113 29.3507L29.1661 32.8578C28.8447 32.6261 28.3927 32.6538 28.1037 32.9428L26.4751 34.5713C26.3149 34.7316 26.3149 34.9912 26.4751 35.1514L31.2037 39.88C31.2838 39.9601 31.3888 40.0001 31.4938 40.0001C31.5987 40.0001 31.7037 39.9601 31.7839 39.88L33.4124 38.2515C33.7169 37.9469 33.7318 37.4611 33.4579 37.138C33.9803 36.8475 34.4902 36.5145 34.9739 36.1475C35.1544 36.0106 35.1897 35.7533 35.0527 35.5728C34.916 35.3924 34.6587 35.3571 34.4781 35.494C33.6464 36.125 32.9494 36.4783 32.8576 36.5329L29.7664 33.4417L32.1021 29.7931C32.1672 29.6914 32.2857 29.6414 32.4041 29.6647C32.5601 29.6959 32.6608 29.8432 32.6334 29.9998L32.2865 31.9866C32.1982 32.493 32.3985 32.9993 32.8094 33.3081C33.2203 33.6168 33.7623 33.6684 34.2241 33.4427C36.0281 32.5607 37.3355 30.9358 37.8107 28.9845L38.2502 27.1801C38.3916 26.5991 39.2273 26.5721 39.178 27.0812C38.9081 29.8643 37.6643 32.4828 35.6757 34.4542C35.5149 34.6137 35.5137 34.8734 35.6732 35.0342C35.8326 35.195 36.0922 35.1963 36.2532 35.0367C38.3775 32.9308 39.7062 30.1336 39.9945 27.1604C40.0614 26.4717 39.5077 25.8751 38.8069 25.8999ZM31.4938 39.0099L27.3455 34.8617L28.6874 33.5229L32.8323 37.6714L31.4938 39.0099Z" fill="black"/>
<path d="M20.6735 18.9179L21.2188 19.2201C21.2234 19.2227 21.2271 19.2264 21.2298 19.2309L22.083 20.7087C22.0856 20.7131 22.0869 20.7183 22.0868 20.7235L22.076 21.347C22.0706 21.6553 22.2331 21.9426 22.5002 22.0968L23.7361 22.8103C23.8674 22.8862 24.014 22.9241 24.1605 22.9241C24.312 22.9241 24.4633 22.8836 24.5976 22.8029L25.1323 22.4816C25.1367 22.479 25.1417 22.4776 25.1469 22.4776H26.8533C26.8585 22.4776 26.8636 22.479 26.8681 22.4817L27.4026 22.8029C27.667 22.9617 27.9972 22.9646 28.2641 22.8104L29.5 22.0968C29.767 21.9427 29.9295 21.6554 29.9242 21.347L29.9134 20.7235C29.9133 20.7183 29.9146 20.7132 29.9172 20.7087L30.7705 19.2308C30.7731 19.2264 30.7769 19.2227 30.7812 19.2202L31.3267 18.9179C31.5964 18.7685 31.764 18.484 31.764 18.1756V16.7485C31.764 16.4402 31.5965 16.1558 31.3267 16.0062L30.7814 15.704C30.7768 15.7014 30.7731 15.6978 30.7704 15.6932L30.7211 15.6078C30.6079 15.4117 30.3569 15.3445 30.1609 15.4578C29.9647 15.571 29.8975 15.8219 30.0108 16.0181L30.06 16.1033C30.137 16.2366 30.2488 16.3466 30.3836 16.4213L30.9289 16.7236C30.938 16.7287 30.9437 16.7382 30.9437 16.7485V18.1756C30.9437 18.1859 30.9381 18.1954 30.929 18.2005L30.3834 18.5029C30.2488 18.5775 30.137 18.6875 30.0601 18.8207L29.2067 20.2986C29.1298 20.432 29.0905 20.5839 29.0932 20.7378L29.104 21.3612C29.1042 21.3716 29.0988 21.3812 29.0898 21.3864L27.8539 22.1C27.8449 22.1051 27.8338 22.1049 27.8251 22.0997L27.2906 21.7785C27.1586 21.6992 27.0074 21.6573 26.8534 21.6573H25.1469C24.9928 21.6573 24.8416 21.6992 24.7098 21.7785L24.1752 22.0997C24.1664 22.105 24.1553 22.1051 24.1464 22.0999L22.9105 21.3865C22.9016 21.3812 22.896 21.3716 22.8963 21.3612L22.9072 20.7378C22.9098 20.5839 22.8706 20.432 22.7936 20.2986L21.9403 18.8208C21.8634 18.6875 21.7515 18.5775 21.6167 18.5028L21.0713 18.2005C21.0623 18.1955 21.0566 18.1859 21.0566 18.1756V16.7485C21.0566 16.7382 21.0623 16.7286 21.0712 16.7236L21.6169 16.4212C21.7515 16.3466 21.8634 16.2366 21.9403 16.1034L22.7936 14.6255C22.8706 14.4921 22.9098 14.3402 22.9072 14.1864L22.8963 13.5629C22.896 13.5526 22.9015 13.543 22.9105 13.5378L24.1465 12.8241C24.1554 12.819 24.1664 12.8191 24.1752 12.8245L24.7099 13.1457C24.8418 13.2249 24.993 13.2669 25.1469 13.2669H26.8534C27.0072 13.2669 27.1583 13.225 27.2905 13.1457L27.8251 12.8245C27.8339 12.8191 27.8449 12.819 27.8539 12.8242L29.0899 13.5378C29.0988 13.543 29.1042 13.5526 29.104 13.5629L29.0932 14.1864C29.0909 14.3154 29.1197 14.4464 29.1763 14.5654C29.2736 14.7699 29.5184 14.8569 29.7228 14.7597C29.9274 14.6624 30.0143 14.4177 29.9171 14.2132C29.9143 14.2074 29.9134 14.2028 29.9134 14.2007L29.9243 13.5772C29.9296 13.2688 29.767 12.9814 29.5 12.8274L28.2641 12.1138C27.997 11.9595 27.6668 11.9623 27.4025 12.1212L26.8682 12.4423C26.8636 12.4451 26.8585 12.4465 26.8533 12.4465H25.1469C25.1417 12.4465 25.1366 12.4451 25.1322 12.4424L24.5977 12.1213C24.3335 11.9624 24.0033 11.9594 23.7362 12.1137L22.5003 12.8272C22.2332 12.9814 22.0707 13.2687 22.076 13.5771L22.0868 14.2006C22.0869 14.2058 22.0856 14.2109 22.0831 14.2153L21.2297 15.6932C21.2272 15.6977 21.2234 15.7014 21.219 15.7038L20.6733 16.0062C20.4037 16.1558 20.2363 16.4402 20.2363 16.7485V18.1755C20.2363 18.484 20.4038 18.7684 20.6735 18.9179Z" fill="black"/>
<path d="M26 14.9816C24.6323 14.9816 23.5195 16.0943 23.5195 17.4621C23.5195 18.8298 24.6323 19.9425 26 19.9425C27.3678 19.9425 28.4805 18.8298 28.4805 17.4621C28.4806 16.0943 27.3678 14.9816 26 14.9816ZM26 19.1223C25.0846 19.1223 24.3398 18.3776 24.3398 17.4621C24.3398 16.5467 25.0846 15.8019 26 15.8019C26.9154 15.8019 27.6602 16.5467 27.6602 17.4621C27.6602 18.3775 26.9154 19.1223 26 19.1223Z" fill="black"/>
<path d="M33.462 25.516C34.4797 25.516 35.3076 24.688 35.3076 23.6704C35.3076 22.6527 34.4797 21.8247 33.462 21.8247C32.4443 21.8247 31.6163 22.6527 31.6163 23.6704C31.6163 24.688 32.4443 25.516 33.462 25.516ZM33.462 22.645C34.0274 22.645 34.4873 23.105 34.4873 23.6704C34.4873 24.2357 34.0274 24.6957 33.462 24.6957C32.8966 24.6957 32.4366 24.2357 32.4366 23.6704C32.4366 23.105 32.8966 22.645 33.462 22.645Z" fill="black"/>
<path d="M30.6155 20.9788L30.6225 21.3817L30.0603 22.3555L29.708 22.5508C29.481 22.6766 29.3399 22.916 29.3399 23.1756V24.165C29.3399 24.4245 29.4809 24.664 29.7079 24.7898L30.0603 24.9851L30.6225 25.9589L30.6155 26.3618C30.611 26.6213 30.7478 26.8631 30.9725 26.9929L31.8294 27.4876C31.9399 27.5514 32.0632 27.5832 32.1865 27.5832C32.314 27.5832 32.4413 27.5492 32.5544 27.4813L32.8998 27.2738H34.0242L34.3696 27.4813C34.592 27.6149 34.8698 27.6174 35.0946 27.4876L35.9515 26.9929C36.1763 26.8632 36.313 26.6214 36.3085 26.3618L36.3015 25.9589L36.8637 24.9851L37.2162 24.7897C37.4431 24.6639 37.5841 24.4245 37.5841 24.165V23.1756C37.5841 22.916 37.4431 22.6767 37.2162 22.5509L36.8637 22.3555L36.3015 21.3817L36.3085 20.9788C36.313 20.7193 36.1763 20.4775 35.9515 20.3478L35.0946 19.853C34.87 19.7233 34.5921 19.7258 34.3696 19.8594L34.0242 20.0669H32.8998L32.5544 19.8594C32.332 19.7258 32.0542 19.7233 31.8294 19.853L30.9724 20.3479C30.7478 20.4776 30.611 20.7194 30.6155 20.9788ZM31.4367 21.027L32.1854 20.5947L32.5026 20.7853C32.6136 20.852 32.7408 20.8872 32.8704 20.8872H34.0536C34.1832 20.8872 34.3103 20.852 34.4215 20.7853L34.7386 20.5947L35.4873 21.027L35.4809 21.3969C35.4786 21.5266 35.5117 21.6545 35.5764 21.7665L36.1679 22.7909C36.2327 22.9032 36.3269 22.9958 36.4402 23.0587L36.7638 23.238V24.1026L36.4401 24.282C36.3268 24.3449 36.2326 24.4375 36.168 24.5495L35.5764 25.5741C35.5116 25.6863 35.4786 25.8141 35.4808 25.9438L35.4872 26.3137L34.7386 26.7459L34.4214 26.5554C34.3103 26.4887 34.1832 26.4534 34.0536 26.4534H32.8704C32.7408 26.4534 32.6137 26.4887 32.5025 26.5554L32.1854 26.7459L31.4367 26.3137L31.4432 25.9438C31.4454 25.8141 31.4124 25.6863 31.3476 25.5742L30.7561 24.5497C30.6913 24.4374 30.5971 24.3448 30.4837 24.282L30.1602 24.1026V23.2381L30.4834 23.0589C30.5969 22.9962 30.6913 22.9035 30.756 22.7912L31.3474 21.7668C31.4123 21.6546 31.4454 21.5266 31.4432 21.3969L31.4367 21.027Z" fill="black"/>
<path d="M18.538 25.516C19.5557 25.516 20.3837 24.688 20.3837 23.6704C20.3837 22.6527 19.5557 21.8247 18.538 21.8247C17.5204 21.8247 16.6924 22.6527 16.6924 23.6704C16.6924 24.688 17.5204 25.516 18.538 25.516ZM18.538 22.645C19.1034 22.645 19.5634 23.105 19.5634 23.6704C19.5634 24.2357 19.1034 24.6957 18.538 24.6957C17.9727 24.6957 17.5127 24.2357 17.5127 23.6704C17.5127 23.105 17.9727 22.645 18.538 22.645Z" fill="black"/>
<path d="M14.7839 24.7899L15.1363 24.9852L15.6985 25.959L15.6914 26.3619C15.6869 26.6214 15.8237 26.8632 16.0484 26.9929L16.9053 27.4876C17.1299 27.6174 17.4078 27.615 17.6304 27.4814L17.9757 27.2738H19.1002L19.4456 27.4814C19.5587 27.5493 19.686 27.5833 19.8135 27.5833C19.9368 27.5833 20.0601 27.5515 20.1706 27.4876L21.0274 26.9929C21.2522 26.8632 21.389 26.6214 21.3845 26.3618L21.3774 25.959L21.9396 24.9852L22.2922 24.7898C22.5191 24.6639 22.6601 24.4245 22.6601 24.1651V23.1756C22.6601 22.9161 22.5191 22.6767 22.2921 22.5509L21.9397 22.3555L21.3774 21.3818L21.3845 20.9789C21.389 20.7194 21.2522 20.4776 21.0275 20.3479L20.1706 19.8532C19.946 19.7233 19.6682 19.7258 19.4456 19.8594L19.1002 20.067H17.9757L17.6303 19.8594C17.4078 19.7257 17.13 19.7234 16.9053 19.8531L16.0485 20.3479C15.8237 20.4776 15.6869 20.7194 15.6914 20.979L15.6985 21.3818L15.1363 22.3555L14.7839 22.5509C14.5569 22.6767 14.4159 22.9161 14.4159 23.1756V24.1651C14.4159 24.4246 14.5568 24.664 14.7839 24.7899ZM15.2362 23.2381L15.5594 23.059C15.6728 22.9963 15.7671 22.9037 15.832 22.7912L16.4237 21.7665C16.4884 21.6543 16.5214 21.5265 16.5192 21.3969L16.5127 21.0271L17.2614 20.5948L17.5784 20.7853C17.6895 20.8521 17.8167 20.8874 17.9464 20.8874H19.1297C19.2593 20.8874 19.3865 20.852 19.4975 20.7854L19.8147 20.5948L20.5633 21.0271L20.5568 21.397C20.5546 21.5265 20.5876 21.6543 20.6524 21.7666L21.2441 22.7914C21.309 22.9037 21.4032 22.9963 21.5167 23.059L21.8399 23.2382V24.1028L21.5163 24.2821C21.403 24.3449 21.3088 24.4374 21.244 24.5497L20.6523 25.5746C20.5876 25.6868 20.5546 25.8145 20.5568 25.944L20.5633 26.3138L19.8146 26.7461L19.4976 26.5557C19.3865 26.4889 19.2593 26.4536 19.1297 26.4536H17.9464C17.8168 26.4536 17.6896 26.4889 17.5786 26.5556L17.2614 26.7461L16.5127 26.3138L16.5192 25.944C16.5214 25.8145 16.4885 25.6868 16.4236 25.5743L15.8319 24.5496C15.7671 24.4374 15.673 24.3449 15.5597 24.2821L15.2361 24.1028V23.2381H15.2362Z" fill="black"/>
<path d="M23.8964 32.9427C23.6073 32.6537 23.1553 32.626 22.8339 32.8577L20.5887 29.3506C20.3401 28.9621 19.8868 28.7692 19.4347 28.8602C18.8389 28.9796 18.4539 29.5421 18.5584 30.1407L18.9052 32.1275C18.9408 32.3315 18.8633 32.5276 18.6977 32.6521C18.5322 32.7765 18.3222 32.7965 18.1361 32.7055C16.5517 31.9309 15.4036 30.5038 14.9862 28.7902L14.5468 26.9858C14.397 26.3707 13.8488 25.9245 13.2134 25.9006L13.1933 25.8998C12.498 25.8732 11.9384 26.4677 12.0055 27.1602C12.4129 31.3608 14.8557 35.0874 18.5423 37.1377C18.2682 37.4607 18.2829 37.9466 18.5876 38.2514L20.2162 39.8799C20.2963 39.96 20.4012 40 20.5062 40C20.6112 40 20.7162 39.96 20.7962 39.8799L22.6163 38.0599C22.7765 37.8997 22.7765 37.64 22.6163 37.4799C22.4562 37.3198 22.1965 37.3197 22.0363 37.4799L20.5066 39.0096L19.1677 37.6678L23.3163 33.5228L24.6549 34.8614L23.1958 36.3203C23.0356 36.4806 23.0356 36.7402 23.1958 36.9004C23.356 37.0605 23.6158 37.0606 23.7758 36.9004L25.5248 35.1514C25.6018 35.0745 25.645 34.9702 25.645 34.8614C25.645 34.7525 25.6018 34.6483 25.5249 34.5713L23.8964 32.9427ZM12.822 27.0811C12.8024 26.8796 12.9674 26.7105 13.1627 26.7197C13.1681 26.7199 13.1885 26.7206 13.183 26.7204C13.4576 26.7307 13.6854 26.9154 13.7497 27.18L14.1892 28.9844C14.6644 30.9356 15.9717 32.5605 17.7758 33.4426C18.2376 33.6683 18.7797 33.6167 19.1905 33.3079C19.6014 32.9992 19.8017 32.4929 19.7134 31.9865L19.3665 29.9997C19.3391 29.843 19.4399 29.6958 19.5958 29.6645C19.7145 29.6409 19.8327 29.6912 19.8978 29.7929L22.2335 33.4416L19.1424 36.5327C19.0927 36.4866 13.4786 33.8512 12.822 27.0811Z" fill="black"/>
</g>
<path d="M47.8101 24.2368C46.7867 24.0809 45.7388 24 44.6719 24C33.2551 24 24 33.2552 24 44.6719C24 45.7388 24.0809 46.7867 24.2368 47.8101L47.8101 24.2368Z" fill="white"/>
</g>
<defs>
<clipPath id="clip0">
<rect width="54" height="54" fill="white"/>
</clipPath>
<clipPath id="clip1">
<rect width="28" height="28" fill="white" transform="translate(12 12)"/>
</clipPath>
</defs>
</svg>
