<svg width="54" height="54" viewBox="0 0 54 54" fill="none" xmlns="http://www.w3.org/2000/svg">
<g clip-path="url(#clip0)">
<path d="M27 54C41.9117 54 54 41.9117 54 27C54 12.0883 41.9117 0 27 0C12.0883 0 0 12.0883 0 27C0 41.9117 12.0883 54 27 54Z" fill="#07A3E9"/>
<path d="M54 27C54 26.3274 53.9746 25.6606 53.9262 25.0003L43.5865 14.6605L12.1494 41.3787L24.6695 53.8988C25.4378 53.9646 26.2147 54.0001 27 54.0001C41.9117 54.0001 54 41.9117 54 27Z" fill="#1177A5"/>
<path d="M27 6.32812C15.5832 6.32812 6.32812 15.5832 6.32812 27C6.32812 37.3499 13.9343 45.9231 23.8618 47.4351L47.4351 23.8618C45.9231 13.9343 37.3499 6.32812 27 6.32812Z" fill="#FFAD61"/>
<path d="M27 6.32812C26.9849 6.32812 26.97 6.32865 26.9548 6.32865V44.342L47.435 23.8617C45.9231 13.9343 37.3499 6.32812 27 6.32812Z" fill="#FFAD61"/>
<path d="M43.084 27C43.084 18.1171 35.8829 10.916 27 10.916C18.1171 10.916 10.916 18.1171 10.916 27C10.916 35.883 18.1171 43.084 27 43.084C27.4247 43.084 27.8455 43.0672 28.2619 43.0349L43.0348 28.262C43.0672 27.8455 43.084 27.4247 43.084 27Z" fill="#FFAD61"/>
<path d="M27 10.916C26.9849 10.916 26.97 10.9165 26.9548 10.9165V43.0834C26.9699 43.0834 26.9848 43.0839 27 43.0839C27.4247 43.0839 27.8456 43.0671 28.262 43.0348L43.0349 28.2619C43.0671 27.8454 43.0839 27.4247 43.0839 27C43.084 18.1171 35.8829 10.916 27 10.916Z" fill="#FFAD61"/>
<path d="M27 39.0761C24.5998 39.0761 22.3215 38.3128 20.4112 36.8688C18.5649 35.4729 17.1841 33.4885 16.5236 31.281L20.0599 30.2227C20.9696 33.2621 23.8234 35.3847 27 35.3847V39.0761Z" fill="#414952"/>
<path d="M20.1973 26.3672C21.8282 26.3672 23.1504 25.045 23.1504 23.4141C23.1504 21.7831 21.8282 20.4609 20.1973 20.4609C18.5663 20.4609 17.2441 21.7831 17.2441 23.4141C17.2441 25.045 18.5663 26.3672 20.1973 26.3672Z" fill="#414952"/>
<path d="M33.8027 26.3672C35.4337 26.3672 36.7559 25.045 36.7559 23.4141C36.7559 21.7831 35.4337 20.4609 33.8027 20.4609C32.1718 20.4609 30.8496 21.7831 30.8496 23.4141C30.8496 25.045 32.1718 26.3672 33.8027 26.3672Z" fill="#23272B"/>
<path d="M47.435 23.8618C46.4116 23.7059 45.3637 23.625 44.2968 23.625C32.88 23.625 23.6249 32.8802 23.6249 44.2969C23.6249 45.3638 23.7058 46.4117 23.8617 47.4351L47.435 23.8618Z" fill="white"/>
</g>
<defs>
<clipPath id="clip0">
<rect width="54" height="54" fill="white"/>
</clipPath>
</defs>
</svg>
