<svg width="90" height="90" viewBox="0 0 90 90" fill="none" xmlns="http://www.w3.org/2000/svg">
<g clip-path="url(#clip0)">
<path d="M63.5544 89.9819H6.96449C6.28505 89.9819 5.73426 89.4311 5.73426 88.7517V6.85449C5.73426 6.17506 6.28505 5.62427 6.96449 5.62427H19.7938L23.4149 7.38173H47.4199L50.725 5.62427H63.5544C64.2338 5.62427 64.7846 6.17506 64.7846 6.85449V88.7517C64.7846 89.4311 64.2338 89.9819 63.5544 89.9819Z" fill="#07A3E9"/>
<path d="M11.3582 5.62341V89.9823H6.96308C6.28365 89.9823 5.73286 89.4315 5.73286 88.7521V6.85364C5.73286 6.1742 6.28365 5.62341 6.96308 5.62341H11.3582Z" fill="#07A3E9"/>
<path d="M12.5877 11.2487H57.9301C58.6096 11.2487 59.1604 11.7994 59.1604 12.4789V83.1285C59.1604 83.8079 58.6096 84.3587 57.9301 84.3587H12.5877C11.9082 84.3587 11.3575 83.8079 11.3575 83.1285V12.4789C11.3575 11.7994 11.9082 11.2487 12.5877 11.2487Z" fill="#EAF6FF"/>
<path d="M40.8827 5.62444C40.8827 2.51847 38.3648 0.000549316 35.2588 0.000549316C32.1528 0.000549316 29.6349 2.51847 29.6349 5.62444H19.7931V8.26661C19.7931 11.4664 22.387 14.0603 25.5868 14.0603H44.9307C48.1305 14.0603 50.7243 11.4664 50.7243 8.26661V5.62444H40.8827Z" fill="#FE7E36"/>
<path d="M29.208 14.0605H25.587C22.3878 14.0605 19.7933 11.4659 19.7933 8.26682V5.62341H23.4144V8.26682C23.4144 11.4659 26.0087 14.0605 29.208 14.0605Z" fill="#E1783C"/>
<path d="M37.0692 0.297012C36.2435 0.579436 35.5068 1.04481 34.9038 1.64762C33.8862 2.6652 33.2562 4.07011 33.2562 5.62354H29.6351C29.6351 4.07011 30.2651 2.6652 31.2827 1.64762C32.3003 0.630051 33.7052 0 35.2586 0C35.8924 0 36.5006 0.104921 37.0692 0.297012Z" fill="#E1783C"/>
<path d="M46.5062 33.762C46.5062 37.9243 44.2431 41.5598 40.8809 43.5043C39.2279 44.4621 37.3052 43.2514 35.2576 43.2514C33.21 43.2514 31.2871 44.4621 29.6342 43.5043C26.2722 41.5598 24.0108 37.9243 24.0108 33.762C24.0108 27.55 29.0458 22.5133 35.2578 22.5133C41.4697 22.5133 46.5062 27.5502 46.5062 33.762Z" fill="#07A3E9"/>
<path d="M40.8809 37.7488V43.5043C39.2279 44.4621 37.3052 45.0089 35.2576 45.0089C33.21 45.0089 31.2871 44.4621 29.6342 43.5043V37.7488C29.6342 37.1767 30.0272 36.6697 30.6101 36.485L33.7242 35.6975H36.7911L39.907 36.485C40.4899 36.6697 40.8809 37.1766 40.8809 37.7488Z" fill="#FE7E36"/>
<path d="M32.4198 31.8544V33.7384C32.4198 35.3059 33.6904 36.5767 35.2581 36.5767C36.8256 36.5767 38.0964 35.3061 38.0964 33.7384V31.8544C38.0964 30.2869 36.8258 29.0161 35.2581 29.0161C33.6906 29.0161 32.4198 30.2868 32.4198 31.8544Z" fill="#FFCEBF"/>
<path d="M46.5057 51.9906H24.0103C23.2604 51.9906 22.6525 51.3827 22.6525 50.6328C22.6525 49.8827 23.2604 49.275 24.0103 49.275H46.5057C47.2558 49.275 47.8635 49.8829 47.8635 50.6328C47.8635 51.3829 47.2558 51.9906 46.5057 51.9906Z" fill="#07A3E9"/>
<path d="M32.4463 57.6143H24.0106C23.2607 57.6143 22.6528 57.0064 22.6528 56.2565C22.6528 55.5066 23.2607 54.8987 24.0106 54.8987H32.4463C33.1962 54.8987 33.8041 55.5066 33.8041 56.2565C33.8041 57.0064 33.1962 57.6143 32.4463 57.6143Z" fill="#07A3E9"/>
<path d="M46.5321 57.6143H38.0962C37.3463 57.6143 36.7384 57.0064 36.7384 56.2565C36.7384 55.5066 37.3463 54.8987 38.0962 54.8987H46.5321C47.2822 54.8987 47.8899 55.5066 47.8899 56.2565C47.8899 57.0064 47.282 57.6143 46.5321 57.6143Z" fill="#07A3E9"/>
<path d="M32.4463 63.2382H24.0106C23.2607 63.2382 22.6528 62.6303 22.6528 61.8804C22.6528 61.1305 23.2607 60.5226 24.0106 60.5226H32.4463C33.1962 60.5226 33.8041 61.1305 33.8041 61.8804C33.8041 62.6303 33.1962 63.2382 32.4463 63.2382Z" fill="#07A3E9"/>
<path d="M46.5321 63.2382H38.0962C37.3463 63.2382 36.7384 62.6303 36.7384 61.8804C36.7384 61.1305 37.3463 60.5226 38.0962 60.5226H46.5321C47.2822 60.5226 47.8899 61.1305 47.8899 61.8804C47.8899 62.6303 47.282 63.2382 46.5321 63.2382Z" fill="#07A3E9"/>
<path d="M32.4463 68.8621H24.0106C23.2607 68.8621 22.6528 68.2542 22.6528 67.5043C22.6528 66.7544 23.2607 66.1465 24.0106 66.1465H32.4463C33.1962 66.1465 33.8041 66.7544 33.8041 67.5043C33.8041 68.2542 33.1962 68.8621 32.4463 68.8621Z" fill="#07A3E9"/>
<path d="M32.4463 77.2979H24.0106C23.2607 77.2979 22.6528 76.69 22.6528 75.9401C22.6528 75.1902 23.2607 74.5823 24.0106 74.5823H32.4463C33.1962 74.5823 33.8041 75.1902 33.8041 75.9401C33.8041 76.69 33.1962 77.2979 32.4463 77.2979Z" fill="#07A3E9"/>
<path d="M46.5321 68.8621H38.0962C37.3463 68.8621 36.7384 68.2542 36.7384 67.5043C36.7384 66.7544 37.3463 66.1465 38.0962 66.1465H46.5321C47.2822 66.1465 47.8899 66.7544 47.8899 67.5043C47.8899 68.2542 47.282 68.8621 46.5321 68.8621Z" fill="#07A3E9"/>
<path d="M67.4391 89.9997C76.733 89.9997 84.2672 82.4655 84.2672 73.1716C84.2672 63.8777 76.733 56.3435 67.4391 56.3435C58.1452 56.3435 50.611 63.8777 50.611 73.1716C50.611 82.4655 58.1452 89.9997 67.4391 89.9997Z" fill="#AEE69C"/>
<path d="M69.1967 89.9104C68.6185 89.9701 68.0333 90 67.4392 90C58.1458 90 50.6115 82.4657 50.6115 73.1723C50.6115 63.877 58.1458 56.3428 67.4392 56.3428C68.0333 56.3428 68.6185 56.3727 69.1967 56.4324C60.7292 57.3129 54.1264 64.4711 54.1264 73.1723C54.1264 81.8717 60.7292 89.0299 69.1967 89.9104Z" fill="#89DAA4"/>
<path d="M66.0327 81.6288C65.2841 81.6288 64.5626 81.3322 64.0294 80.7989L58.4055 75.1752C57.299 74.0687 57.299 72.2745 58.4055 71.168C59.5122 70.0615 61.306 70.0615 62.4127 71.168L65.7264 74.4817L72.202 65.8477C73.141 64.5958 74.9167 64.342 76.1687 65.2811C77.4206 66.2201 77.6744 67.996 76.7354 69.2478L68.2995 80.4954C67.8067 81.1525 67.0529 81.5634 66.2336 81.6216C66.1667 81.6265 66.0995 81.6288 66.0327 81.6288Z" fill="#EAF6FF"/>
</g>
<defs>
<clipPath id="clip0">
<rect width="90" height="90" fill="white"/>
</clipPath>
</defs>
</svg>
