<svg width="90" height="90" viewBox="0 0 90 90" fill="none" xmlns="http://www.w3.org/2000/svg">
<g clip-path="url(#clip0)">
<path d="M37.3622 69.9976V67.5937C37.3622 62.2772 35.7773 57.3225 33.0539 53.1795C29.7189 48.0981 24.6706 44.2361 18.7371 42.418V50.1439L0.00726318 35.6673L18.7371 21.1906V28.4317C24.5916 29.5703 30.0881 32.0036 34.8812 35.5938C36.0969 36.501 37.2667 37.4853 38.3869 38.5413L37.3622 69.9976Z" fill="#FE7E36"/>
<path d="M37.3622 69.9976V67.5937C37.3622 62.2772 35.7774 57.3225 33.054 53.1795V47.5894C33.054 44.5042 33.401 41.474 34.0787 38.5413C34.3082 37.5459 34.5764 36.5634 34.8812 35.5938C36.0969 36.501 37.2667 37.4853 38.387 38.5413L37.3622 69.9976Z" fill="#C85A1C"/>
<path d="M50.9391 90V67.5937V47.5894C50.9391 35.1383 59.6291 24.678 71.2629 21.9546V28.9532L89.9927 14.4766L71.2629 0V8.13541C62.8832 9.39153 55.1519 13.2738 49.0494 19.3744C43.6943 24.7294 40.049 31.3406 38.387 38.5413C37.7094 41.474 37.3623 44.5042 37.3623 47.5894V67.5937V90H50.9391Z" fill="#07A3E9"/>
</g>
<defs>
<clipPath id="clip0">
<rect width="90" height="90" fill="white"/>
</clipPath>
</defs>
</svg>
