<svg width="90" height="90" viewBox="0 0 90 90" fill="none" xmlns="http://www.w3.org/2000/svg">
<g clip-path="url(#clip0)">
<path d="M9.85852 81.5776L9.53578 72.925C9.47145 71.202 8.92178 69.5324 7.95006 68.1082L2.05981 59.4761C-0.622616 55.5451 -0.690292 50.3902 1.88807 46.3901L12.0421 30.6273L18.6732 53.4725L16.0096 81.9051L10.9044 82.4782C10.3602 82.5391 9.87891 82.1247 9.85852 81.5776Z" fill="#F1D0A5"/>
<path d="M90 50.8748C90 53.4473 87.9145 55.5328 85.342 55.5328H16.0154C13.4429 55.5328 11.3574 53.4473 11.3574 50.8748V4.65803C11.3574 2.08547 13.4429 0 16.0154 0H85.342C87.9145 0 90 2.08547 90 4.65803V50.8748Z" fill="#07A3E9"/>
<path d="M90 4.65803C90 2.08547 87.9145 0 85.342 0H82.179C84.7515 0 86.837 2.08547 86.837 4.65803V50.8748C86.837 53.4473 84.7515 55.5328 82.179 55.5328H85.342C87.9145 55.5328 90 53.4473 90 50.8748V4.65803Z" fill="#3288AF"/>
<path d="M83.5456 6.20087H19.7866C19.6471 6.20087 19.5333 6.3211 19.5333 6.46876V49.0641C19.5333 49.2117 19.6471 49.332 19.7866 49.332H83.5455C83.6852 49.332 83.7989 49.2117 83.7989 49.0641V6.46876C83.7991 6.3211 83.6854 6.20087 83.5456 6.20087Z" fill="#D3EFFB"/>
<path d="M83.5457 6.20087H80.1619C80.3016 6.20087 80.4154 6.3211 80.4154 6.46876V49.0641C80.4154 49.2117 80.3016 49.332 80.1619 49.332H83.5457C83.6854 49.332 83.7992 49.2117 83.7992 49.0641V6.46876C83.7992 6.3211 83.6854 6.20087 83.5457 6.20087Z" fill="#B1E4F9"/>
<path d="M15.4853 30.2291C14.735 30.2291 14.1272 29.6211 14.1272 28.871V26.662C14.1272 25.9117 14.7352 25.3039 15.4853 25.3039C16.2353 25.3039 16.8434 25.9119 16.8434 26.662V28.871C16.8435 29.6211 16.2355 30.2291 15.4853 30.2291Z" fill="#3288AF"/>
<path d="M23.09 80.315L23.2355 74.0517C23.2617 72.9215 23.4651 71.8023 23.8377 70.7347C24.8849 67.7364 24.2918 64.4091 22.2735 61.9569C21.8486 61.4407 21.7821 60.7173 22.1059 60.1325L30.6839 44.6344C31.3794 43.3776 31.1495 41.8108 30.1221 40.8069C28.8357 39.5501 26.7654 39.6039 25.5461 40.9261L11.2773 56.3998L12.2161 67.1834L16.0095 81.9049L22.2503 81.229C22.7198 81.1782 23.0789 80.7871 23.09 80.315Z" fill="#F1D0A5"/>
<path d="M30.6839 44.6344C31.3794 43.3775 31.1495 41.8108 30.1221 40.8069C28.9632 39.6745 27.1695 39.6097 25.9337 40.5743C26.0258 40.6464 26.1153 40.7232 26.2009 40.8069C27.2284 41.8108 27.4583 43.3775 26.7627 44.6344L18.1848 60.1325C17.861 60.7175 17.9274 61.4408 18.3523 61.9569C20.3706 64.4091 20.9637 67.7364 19.9166 70.7347C19.5437 71.8021 19.3405 72.9213 19.3143 74.0517L19.214 78.3721C19.1772 79.956 17.9723 81.2675 16.3971 81.4382L16.3273 81.4458C16.1037 81.47 15.9534 81.6869 16.0097 81.9049L22.2504 81.229C22.7199 81.1782 23.0792 80.7873 23.0901 80.315L23.2313 74.244C23.2589 73.0538 23.4413 71.8669 23.8351 70.7433C24.8863 67.7427 24.2939 64.4115 22.2738 61.9571C21.8489 61.441 21.7825 60.7175 22.1063 60.1327L30.6839 44.6344Z" fill="#F1B986"/>
<path d="M73.1528 43.38H54.9207C53.633 43.38 52.589 42.336 52.589 41.0483V35.1968C52.589 33.9091 53.633 32.8651 54.9207 32.8651H73.1528C74.4405 32.8651 75.4845 33.9091 75.4845 35.1968V41.0483C75.4845 42.336 74.4405 43.38 73.1528 43.38Z" fill="#FE7E36"/>
<path d="M73.1528 32.8649H69.5406C70.8284 32.8649 71.8724 33.9089 71.8724 35.1967V41.0481C71.8724 42.3358 70.8284 43.3798 69.5406 43.3798H73.1528C74.4405 43.3798 75.4845 42.3358 75.4845 41.0481V35.1967C75.4845 33.9091 74.4405 32.8649 73.1528 32.8649Z" fill="#FFA06A"/>
<path d="M81.3593 90C81.9515 90 82.4316 89.5199 82.4316 88.9277V83.6928C82.4316 82.5001 82.7606 81.3357 83.3753 80.3538L86.0723 76.0456C87.3232 74.0475 87.6039 71.5001 86.8233 69.2302L85.5457 65.5156L83.0763 60.2854H64.8258L60.6329 65.5156L54.357 62.46C53.2179 61.9054 51.8862 62.1865 51.0138 63.1654C49.857 64.4635 49.8741 66.5488 51.0518 67.824L59.1882 76.6329C60.1123 77.6334 60.6329 79.001 60.6329 80.4285V88.9275C60.6329 89.5198 61.113 89.9998 61.7052 89.9998H81.3593V90Z" fill="#F1D0A5"/>
<path d="M86.8233 69.2304L85.5457 65.5158L83.0763 60.2856L80.2049 60.1847L82.4316 65.516L83.4297 69.2306C84.2103 71.5004 83.9298 74.0479 82.6789 76.046L79.9817 80.3542C79.3672 81.3359 79.0379 82.5005 79.0379 83.6931V90H81.3593C81.9515 90 82.4316 89.5199 82.4316 88.9277V83.6928C82.4316 82.5001 82.7608 81.3356 83.3753 80.3538L86.0724 76.0456C87.3232 74.0475 87.6039 71.5001 86.8233 69.2304Z" fill="#F1B986"/>
<path d="M66.8612 65.5156V42.2789C66.8612 40.3841 65.4669 38.848 63.7471 38.848C62.0272 38.848 60.6329 40.384 60.6329 42.2789V65.5158H66.8612V65.5156Z" fill="#F1D0A5"/>
<path d="M73.0893 65.5156V55.4707C73.0893 54.3211 72.0445 53.3891 70.7555 53.3891H69.1951C67.9061 53.3891 66.8612 54.3211 66.8612 55.4707V65.5156H73.0893Z" fill="#F1D0A5"/>
<path d="M79.3176 65.5156V55.4707C79.3176 54.3211 78.2728 53.3891 76.9838 53.3891H75.4234C74.1344 53.3891 73.0895 54.3211 73.0895 55.4707V65.5156H79.3176Z" fill="#F1D0A5"/>
<path d="M85.5457 65.5156V55.4707C85.5457 54.3211 84.5009 53.3891 83.2119 53.3891H81.6514C80.3624 53.3891 79.3176 54.3211 79.3176 55.4707V65.5156H85.5457Z" fill="#F1D0A5"/>
<path d="M83.2119 53.3892H81.6515C81.3787 53.3892 81.118 53.4331 80.8747 53.5097C81.7812 53.7956 82.4318 54.5644 82.4318 55.4708V65.5156H85.5459V55.4708C85.5457 54.3211 84.5007 53.3892 83.2119 53.3892Z" fill="#F1B986"/>
<path d="M66.8612 66.8739C66.111 66.8739 65.5031 66.2658 65.5031 65.5158V55.4709C65.5031 54.7207 66.1111 54.1129 66.8612 54.1129C67.6114 54.1129 68.2193 54.7209 68.2193 55.4709V65.5158C68.2193 66.2658 67.6114 66.8739 66.8612 66.8739Z" fill="#F1B986"/>
<path d="M73.0895 66.8739C72.3393 66.8739 71.7314 66.2658 71.7314 65.5158V55.4709C71.7314 54.7207 72.3395 54.1129 73.0895 54.1129C73.8396 54.1129 74.4476 54.7209 74.4476 55.4709V65.5158C74.4476 66.2658 73.8396 66.8739 73.0895 66.8739Z" fill="#F1B986"/>
<path d="M79.3174 66.8739C78.5672 66.8739 77.9594 66.2658 77.9594 65.5158V55.4709C77.9594 54.7207 78.5674 54.1129 79.3174 54.1129C80.0675 54.1129 80.6755 54.7209 80.6755 55.4709V65.5158C80.6757 66.2658 80.0677 66.8739 79.3174 66.8739Z" fill="#F1B986"/>
<path d="M47.2866 33.9906C41.6194 36.3624 35.9522 36.3624 30.2848 33.9906C29.7381 33.7618 29.3804 33.2284 29.3804 32.6357V19.0155H48.1908V32.6357C48.1908 33.2284 47.8332 33.7619 47.2866 33.9906Z" fill="#4A80AA"/>
<path d="M45.7237 19.0155V31.5607C45.7237 32.1534 45.3662 32.6869 44.8193 32.9156C39.8074 35.013 34.7956 35.2542 29.7837 33.6417C29.9226 33.7885 30.091 33.9094 30.2848 33.9905C35.952 36.3623 41.6192 36.3623 47.2866 33.9905C47.8334 33.7616 48.191 33.2283 48.191 32.6356V19.0153H45.7237V19.0155Z" fill="#407093"/>
<path d="M53.3572 19.5674L38.9438 27.4989C38.8454 27.553 38.726 27.553 38.6276 27.4989L24.2142 19.5674C23.9878 19.4428 23.9878 19.1174 24.2142 18.9928L38.6276 11.0614C38.726 11.0072 38.8454 11.0072 38.9438 11.0614L53.3572 18.9928C53.5836 19.1174 53.5836 19.4428 53.3572 19.5674Z" fill="#07A3E9"/>
<path d="M53.3571 18.9928L38.9438 11.0614C38.8453 11.0072 38.726 11.0072 38.6275 11.0614L36.3185 12.3321L48.4228 18.9928C48.6492 19.1174 48.6492 19.4428 48.4228 19.5674L36.3185 26.2281L38.6275 27.4989C38.726 27.553 38.8453 27.553 38.9438 27.4989L53.3571 19.5674C53.5835 19.4428 53.5835 19.1174 53.3571 18.9928Z" fill="#3288AF"/>
<path d="M43.0747 31.1098C42.3244 31.1098 41.7166 30.5017 41.7166 29.7517V25.0283L37.5706 20.1609C37.0842 19.5899 37.153 18.7327 37.7239 18.2463C38.295 17.7595 39.1523 17.8288 39.6385 18.3996L44.1086 23.6477C44.3178 23.8934 44.4328 24.2056 44.4328 24.5283V29.7517C44.4328 30.5017 43.8249 31.1098 43.0747 31.1098Z" fill="#407093"/>
<path d="M69.9752 19.3548H59.8057C59.0555 19.3548 58.4476 18.7467 58.4476 17.9967C58.4476 17.2464 59.0557 16.6386 59.8057 16.6386H69.9752C70.7254 16.6386 71.3333 17.2466 71.3333 17.9967C71.3334 18.7467 70.7254 19.3548 69.9752 19.3548Z" fill="#3288AF"/>
<path d="M77.2187 25.5855H59.8058C59.0556 25.5855 58.4478 24.9774 58.4478 24.2274C58.4478 23.4773 59.0558 22.8693 59.8058 22.8693H77.2187C77.969 22.8693 78.5768 23.4773 78.5768 24.2274C78.5768 24.9774 77.9688 25.5855 77.2187 25.5855Z" fill="#3288AF"/>
</g>
<defs>
<clipPath id="clip0">
<rect width="90" height="90" fill="white"/>
</clipPath>
</defs>
</svg>
