<svg width="90" height="90" viewBox="0 0 90 90" fill="none" xmlns="http://www.w3.org/2000/svg">
<g clip-path="url(#clip0)">
<path d="M65.3226 39.9192V40.9379C65.3226 42.1861 65.5238 43.4261 65.9185 44.6101L68.2258 51.532H72.5806V35.5642H69.6774C67.2723 35.5644 65.3226 37.514 65.3226 39.9192Z" fill="#5A4146"/>
<path d="M85.1983 42.9347L82.742 51.5322L71.129 41.371C69.5255 41.371 68.2258 40.0711 68.2258 38.4678C68.2258 36.0627 70.1755 34.113 72.5806 34.113H82.7418C84.3453 34.113 85.645 35.4129 85.645 37.0162V39.7447C85.6452 40.8234 85.4947 41.8971 85.1983 42.9347Z" fill="#694B4B"/>
<path d="M79.8377 55.8879H71.1281V62.3125H79.8377V55.8879Z" fill="#E6AF78"/>
<path d="M71.129 58.5535C72.4753 59.1005 73.9434 59.4084 75.4838 59.4084C77.0241 59.4084 78.4923 59.1005 79.8386 58.5535V55.887H71.129V58.5535Z" fill="#D29B6E"/>
<path d="M86.8414 61.4094L79.8382 59.4086L75.4838 62.2983L71.129 59.4084L64.1262 61.4094C62.2566 61.9436 60.9678 63.6523 60.9678 65.5967V76.2096C60.9678 77.0114 61.6176 77.6612 62.4194 77.6612H88.5484C89.3501 77.6612 90 77.0114 90 76.2096V65.5967C90 63.6522 88.711 61.9436 86.8414 61.4094Z" fill="#FE7E36"/>
<path d="M76.9354 77.661H74.0322L74.758 62.3116H76.2096L76.9354 77.661Z" fill="#AFB9D2"/>
<path d="M75.4838 57.3386C70.6736 57.3386 66.7742 53.4391 66.7742 48.629V46.9283C66.7742 46.1584 67.0801 45.4199 67.6245 44.8754L70.2568 42.243C70.8142 41.6856 71.5764 41.3652 72.3642 41.39C77.0045 41.5364 81.1118 42.5304 83.3571 44.7233C83.9067 45.2602 84.1936 46.0111 84.1936 46.7793V48.629C84.1936 53.4393 80.2941 57.3386 75.4838 57.3386Z" fill="#F0C087"/>
<path d="M71.129 47.2883C71.129 45.6138 72.5353 44.2828 74.2064 44.3893C77.1369 44.5764 81.4854 45.0661 84.1532 46.3493C84.0662 45.7369 83.803 45.1587 83.3571 44.7231C81.1118 42.5303 77.0045 41.5362 72.3642 41.3898L72.3641 41.39V41.3898C71.5764 41.365 70.814 41.6856 70.2568 42.2429L67.6247 44.875C67.0801 45.4194 66.7742 46.1579 66.7742 46.928V48.6286C66.7742 52.6006 69.4357 55.9448 73.0707 56.9921C71.8608 55.4994 71.1292 53.6045 71.1292 51.5319L71.129 47.2883Z" fill="#E6AF78"/>
<path d="M84.1936 69.9221C84.1936 68.767 84.6524 67.6594 85.4691 66.8428L89.2057 63.1062C89.7051 63.82 90 64.6794 90 65.5968V76.2098C90 77.0115 89.3502 77.6614 88.5484 77.6614H84.1936V69.9221Z" fill="#FF9F69"/>
<path d="M76.2096 65.2148H74.758C74.3572 65.2148 74.0322 64.8898 74.0322 64.489V62.3116H76.9354V64.489C76.9354 64.8898 76.6106 65.2148 76.2096 65.2148Z" fill="#959CB5"/>
<path d="M75.4838 62.2984L73.0234 64.1777C72.5996 64.5015 71.9868 64.3718 71.7307 63.9039L69.5236 59.8732L70.412 58.5181C70.6091 58.2175 71.029 58.1664 71.2925 58.4107L75.4838 62.2984Z" fill="#FF9F69"/>
<path d="M75.4838 62.2985L77.9442 64.178C78.368 64.5018 78.9808 64.3721 79.2369 63.9041L81.444 59.8735L80.5556 58.5184C80.3586 58.2178 79.9386 58.1666 79.6752 58.411L75.4838 62.2985Z" fill="#FF9F69"/>
<path d="M25.9844 56.7325C24.7439 53.4457 23.76 47.7956 23.5475 44.8539C23.1432 39.256 18.9246 34.6927 13.2219 34.6927C7.51923 34.6927 3.30066 39.2561 2.89636 44.8539C2.68384 47.7954 1.7 53.4457 0.459508 56.7325C0.186168 57.4571 0.501695 58.256 1.21519 58.5794C2.54445 59.1818 5.37857 60.362 8.79664 60.8217H17.647C21.0491 60.361 23.9031 59.1801 25.2285 58.5794C25.9422 58.256 26.2577 57.4571 25.9844 56.7325Z" fill="#5A4146"/>
<path d="M25.2287 58.5796C25.942 58.2562 26.2577 57.4572 25.9842 56.7327C24.7439 53.4459 23.7598 47.7958 23.5475 44.8541C23.1434 39.2562 18.9246 34.6929 13.2221 34.6929C13.2077 34.6929 13.1935 34.6929 13.179 34.693C8.80332 34.7108 7.25697 40.6784 11.0238 42.905C11.25 43.0388 11.395 43.1031 11.395 43.1031L14.6943 60.8219H17.6472C21.0493 60.3608 23.9033 59.1801 25.2287 58.5796Z" fill="#694B4B"/>
<path d="M23.7217 63.7362L19.0241 61.3875C18.0404 60.8957 17.419 59.8902 17.4192 58.7906L17.4196 54.4356H8.70961V58.7907C8.70961 59.8904 8.0884 60.8955 7.10473 61.3874L2.40715 63.7362C0.931817 64.4737 0 65.9816 0 67.6309V76.2094C0 77.011 0.649863 77.661 1.4516 77.661H24.6774C25.4791 77.661 26.129 77.011 26.129 76.2094V67.6311C26.129 65.9816 25.197 64.4737 23.7217 63.7362Z" fill="#E6AF78"/>
<path d="M13.0646 60.2418C14.6277 60.2418 16.1248 59.9196 17.4973 59.3461C17.4612 59.1631 17.4192 58.9811 17.4192 58.7904L17.4196 54.4354H8.70962V58.7906C8.70962 58.9824 8.66761 59.1652 8.63123 59.3489C10.0046 59.9195 11.501 60.2418 13.0646 60.2418Z" fill="#D29B6E"/>
<path d="M23.7217 63.7362L20.3752 62.0629C18.8234 64.4592 16.132 66.0484 13.0646 66.0484C9.99721 66.0484 7.30564 64.4592 5.75385 62.0627L2.40732 63.7362C0.931992 64.4738 0 65.9816 0 67.631V76.2094C0 77.0112 0.649863 77.661 1.4516 77.661H24.6774C25.4791 77.661 26.129 77.0112 26.129 76.2094V67.6311C26.129 65.9816 25.197 64.4738 23.7217 63.7362Z" fill="#FE7E36"/>
<path d="M13.0646 57.3386C8.63634 57.3386 4.98009 54.0339 4.42726 49.7563C4.3471 49.1365 4.64505 48.5288 5.20298 48.2474C5.8713 47.9102 6.84249 47.3417 7.77237 46.5121C8.8079 45.5882 9.4154 44.6138 9.75852 43.8985C10.054 43.2826 10.7332 42.9342 11.3952 43.1031C16.5062 44.4067 19.9858 47.0658 21.2483 48.1514C21.5872 48.4428 21.7825 48.8726 21.7477 49.3184C21.3959 53.8061 17.6428 57.3386 13.0646 57.3386Z" fill="#F0C087"/>
<path d="M21.2481 48.1512C19.9858 47.0656 16.506 44.4066 11.395 43.103C10.733 42.9341 10.0538 43.2825 9.7583 43.8984C9.4985 44.4402 9.06907 45.1303 8.43186 45.8348C8.43168 45.8366 8.43116 45.838 8.43098 45.8397C8.23323 46.0638 8.02264 46.2885 7.77233 46.5121C6.84245 47.3419 5.87125 47.9103 5.20293 48.2474C4.645 48.5288 4.34723 49.1367 4.42721 49.7565C4.92379 53.5982 7.93 56.6561 11.7441 57.2393C10.0062 56.057 8.70977 54.431 8.70977 51.5324V49.4624C9.03954 49.2189 9.37159 48.9762 9.70522 48.6784C10.5121 47.9584 11.2164 47.1257 11.7812 46.2293C15.6911 47.4494 18.3419 49.4816 19.3468 50.3457C19.6219 50.5869 20.3047 51.2162 21.1034 51.9655C21.4471 51.1385 21.6743 50.2511 21.7473 49.3186C21.7823 48.8727 21.587 48.4429 21.2481 48.1512Z" fill="#E6AF78"/>
<path d="M0.884883 65.0143C0.325723 65.7564 0 66.6668 0 67.631V76.2094C0 77.0112 0.649863 77.661 1.4516 77.661H5.80641V70.3468C5.80641 69.4649 5.40545 68.6306 4.71674 68.0797L0.884883 65.0143Z" fill="#FF9F69"/>
<path d="M65.8552 61.7551L53.7096 57.3384L45 60.2418L36.2904 57.3386L24.1448 61.7553C21.8502 62.5897 20.3226 64.7705 20.3226 67.2121V76.2096C20.3226 77.0112 20.9725 77.6612 21.7742 77.6612H68.2258C69.0276 77.6612 69.6774 77.0112 69.6774 76.2096V67.2121C69.6774 64.7703 68.1501 62.5896 65.8552 61.7551Z" fill="#47C4FC"/>
<path d="M43.4793 63.1452L42.0968 77.661H47.9032L46.5207 63.1452H43.4793Z" fill="#707487"/>
<path d="M46.524 65.1394H43.476C42.9147 65.1394 42.4598 64.6845 42.4598 64.1232V60.2418H47.54V64.1232C47.5402 64.6843 47.0853 65.1394 46.524 65.1394Z" fill="#5B5D6E"/>
<path d="M68.1149 63.2558C69.095 64.3078 69.6774 65.709 69.6774 67.2119V76.2094C69.6774 77.0112 69.0275 77.661 68.2258 77.661H60.9678V72.8081C60.9678 71.268 61.5795 69.7911 62.6685 68.7023L68.1149 63.2558Z" fill="#07A3E9"/>
<path d="M60.9678 27.4024V15.2418C60.9678 13.6383 59.6679 12.3386 58.0646 12.3386H40.6452C34.2317 12.3386 29.0322 17.5379 29.0322 23.9516V27.4024C29.0322 28.9626 29.2838 30.5126 29.7772 31.9927L30.2604 33.4424C30.4084 33.8864 30.4838 34.3514 30.4838 34.8195V35.5644H59.516V34.8195C59.516 34.3514 59.5915 33.8864 59.7395 33.4424L60.2227 31.9927C60.7163 30.5125 60.9678 28.9624 60.9678 27.4024Z" fill="#5A4146"/>
<path d="M36.2903 18.2357C36.2903 21.4926 38.9306 24.1328 42.1875 24.1328H43.004L43.3981 35.5642H59.516V34.8193C59.516 34.3512 59.5914 33.8862 59.7394 33.4422L60.2226 31.9925C60.716 30.5125 60.9676 28.9624 60.9676 27.4022V15.2418C60.9676 13.6383 59.6677 12.3386 58.0644 12.3386H42.1875C38.9306 12.3386 36.2903 14.9789 36.2903 18.2357Z" fill="#694B4B"/>
<path d="M53.71 47.1779H36.29V60.242H53.71V47.1779Z" fill="#E6AF78"/>
<path d="M36.2904 52.0857C38.8547 53.5713 41.8235 54.4352 45 54.4352C48.1766 54.4352 51.1455 53.5713 53.7096 52.0857V47.1772H36.2902L36.2904 52.0857Z" fill="#D29B6E"/>
<path d="M45 60.2418L40.3703 64.8715C39.748 65.4938 38.7195 65.4237 38.1876 64.7227L33.3872 58.3973L34.6428 55.7513C35.0134 54.9705 35.9798 54.6843 36.7156 55.1378L45 60.2418Z" fill="#07A3E9"/>
<path d="M45 60.2418L49.6297 64.8715C50.252 65.4938 51.2805 65.4237 51.8124 64.7227L56.6128 58.3973L55.3572 55.7513C54.9867 54.9705 54.0202 54.6843 53.2844 55.1378L45 60.2418Z" fill="#07A3E9"/>
<path d="M45 51.5322C36.983 51.5322 30.4838 45.033 30.4838 37.016V35.3153C30.4838 34.5454 30.7897 33.8069 31.3341 33.2624L32.5366 32.0599C33.081 31.5155 33.3869 30.777 33.3869 30.0069V26.5271C33.3869 25.855 33.8383 25.271 34.4923 25.1165C37.9255 24.3056 48.609 22.3849 55.8795 27.7321C56.3516 28.0793 56.6127 28.6497 56.6127 29.2358V30.0069C56.6127 30.7768 56.9185 31.5153 57.4629 32.0599L58.6654 33.2624C59.2098 33.8068 59.5157 34.5452 59.5157 35.3153V37.016C59.5162 45.033 53.017 51.5322 45 51.5322Z" fill="#F0C087"/>
<path d="M55.8796 27.7323C50.7662 23.9715 43.9738 23.8087 39.1936 24.3236C37.1772 24.5406 35.5112 24.8762 34.4927 25.1167C33.8386 25.2712 33.3872 25.8551 33.3872 26.5273V30.0069C33.3872 30.777 33.0813 31.5155 32.5368 32.06L31.3343 33.2626C30.7897 33.8071 30.4838 34.5456 30.4838 35.3157V37.0162C30.4838 44.4384 36.0578 50.5487 43.2459 51.4162C40.7412 48.8078 39.1934 45.273 39.1934 41.371V30.7607C39.1934 29.2896 40.2873 28.0601 41.7468 27.8772C45.2305 27.4403 51.611 27.1777 56.6127 30.0073V29.2359C56.613 28.6499 56.3514 28.0793 55.8796 27.7323Z" fill="#E6AF78"/>
<path d="M21.8852 63.2558C20.905 64.3078 20.3226 65.709 20.3226 67.2119V76.2094C20.3226 77.0112 20.9725 77.661 21.7742 77.661H29.0322V72.8081C29.0322 71.268 28.4205 69.7911 27.3316 68.7023L21.8852 63.2558Z" fill="#07A3E9"/>
</g>
<defs>
<clipPath id="clip0">
<rect width="90" height="90" fill="white"/>
</clipPath>
</defs>
</svg>
