<svg width="735" height="275" viewBox="0 0 735 275" fill="none" xmlns="http://www.w3.org/2000/svg">
<path d="M17 91C17 49.5786 50.5786 16 92 16V16C133.421 16 167 49.5786 167 91V91C167 132.421 133.421 166 92 166V166C50.5786 166 17 132.421 17 91V91V91Z" fill="white"/>
<path d="M17 181C17 139.579 50.5786 106 92 106V106C133.421 106 167 139.579 167 181V181C167 222.421 133.421 256 92 256V256C50.5786 256 17 222.421 17 181V181V181Z" fill="white"/>
<rect x="701" y="184" width="571" height="90.9999" transform="rotate(-180 701 184)" fill="white"/>
<path d="M204.187 185.425L204.201 185.431L204.216 185.437C209.92 187.854 216.197 189.016 222.969 189.016C230.105 189.016 236.548 187.718 242.136 184.924L242.167 184.908L242.199 184.891C247.665 182.061 252.004 178.193 254.999 173.235C257.931 168.383 259.411 163.076 259.411 157.411C259.411 156.763 259.395 156.122 259.363 155.489L258.391 118.201L258.388 118.081L258.379 117.96C257.692 108.735 253.921 101.172 246.915 95.7998C240.14 90.454 231.542 88 221.569 88C214.891 88 208.758 89.1585 203.271 91.6014C197.741 93.9781 193.268 97.53 190.054 102.299C186.806 107.119 185.257 112.695 185.255 118.824C185.255 118.829 185.255 118.835 185.255 118.841L185 157.506L185 157.561L185.001 157.617C185.1 163.962 186.856 169.694 190.404 174.599C193.864 179.382 198.513 182.979 204.187 185.425Z" fill="white" stroke="white" stroke-width="10"/>
<rect x="735" y="84" width="80" height="86" rx="40" transform="rotate(90 735 84)" fill="white"/>
<rect x="735" y="114" width="80" height="86" rx="40" transform="rotate(90 735 114)" fill="white"/>
<path d="M282.712 187.979H286.274L287.438 184.613L292.129 171.049H320.395L325.086 184.613L326.25 187.979H329.811H348.651H355.759L353.357 181.289L321.406 92.3102L320.217 89H316.7H295.951H292.434L291.245 92.3102L259.294 181.289L256.892 187.979H264H282.712Z" fill="white" stroke="white" stroke-width="10"/>
<path d="M377.821 187.852H382.821V182.852V153.737H392.715C400.551 153.737 407.449 152.376 413.135 149.334C418.694 146.405 423.006 142.401 425.754 137.241C428.44 132.352 429.793 127.078 429.793 121.496C429.793 115.434 428.368 109.841 425.424 104.852C422.491 99.7363 418.091 95.83 412.486 93.0765C406.8 90.2836 400.149 89 392.715 89H360H355V94V182.852V187.852H360H377.821Z" fill="white" stroke="white" stroke-width="10"/>
<path d="M460.821 94V89H455.821H438H433V94V182.852V187.852H438H455.821H460.821V182.852V94Z" fill="white" stroke="white" stroke-width="10"/>
<path d="M470.795 164.52L470.802 164.531L470.809 164.543C475.33 172.172 481.485 178.186 489.212 182.521C496.95 186.862 505.436 189.016 514.572 189.016C523.707 189.016 532.193 186.862 539.931 182.521C547.664 178.183 553.787 172.158 558.226 164.511C562.782 156.724 565.016 147.992 565.016 138.444C565.016 128.981 562.782 120.333 558.226 112.631C553.794 104.912 547.678 98.8436 539.943 94.5015C532.271 90.1476 523.778 88 514.572 88C505.436 88 496.95 90.1539 489.212 94.4948C481.474 98.8359 475.318 104.9 470.802 112.612C466.238 120.318 464 128.973 464 138.444C464 147.996 466.236 156.731 470.795 164.52Z" fill="white" stroke="white" stroke-width="10"/>
<path d="M595.439 94.003V89.003L590.439 89.003L573 89.0029L568 89.0029V94.0029V148.867C568 157.113 569.718 164.453 573.416 170.651L573.426 170.666L573.435 170.682C577.061 176.66 582.015 181.227 588.232 184.286L588.246 184.293L588.26 184.299C594.434 187.29 601.215 188.746 608.515 188.746C615.885 188.746 622.706 187.296 628.885 184.306C635.251 181.267 640.341 176.72 644.069 170.74C647.974 164.527 649.794 157.154 649.794 148.867V94.0029V89.0029L644.794 89.0029L626.718 89.003L621.718 89.003V94.003V147C621.718 149.065 621.523 151.174 621.142 153.106C620.891 153.044 620.639 152.982 620.386 152.919C618.021 152.335 615.592 151.736 613.267 151.141C607.775 149.736 602.617 148.301 598.878 146.89C597.316 146.301 596.185 145.783 595.439 145.36V94.003Z" fill="white" stroke="white" stroke-width="10"/>
<path d="M222.545 184.144C216.35 184.144 210.749 183.083 205.742 180.961C200.82 178.84 196.917 175.784 194.031 171.796C191.146 167.807 189.661 163.097 189.576 157.666H208.67C208.925 161.315 210.198 164.201 212.489 166.322C214.865 168.444 218.09 169.505 222.163 169.505C226.322 169.505 229.589 168.529 231.965 166.577C234.341 164.54 235.529 161.909 235.529 158.685C235.529 156.054 234.723 153.89 233.111 152.193C231.498 150.495 229.462 149.18 227.001 148.246C224.624 147.228 221.315 146.125 217.072 144.937C211.301 143.239 206.591 141.585 202.942 139.972C199.378 138.275 196.28 135.772 193.649 132.462C191.104 129.067 189.831 124.57 189.831 118.969C189.831 113.707 191.146 109.124 193.777 105.221C196.408 101.317 200.099 98.3469 204.851 96.3101C209.604 94.1886 215.035 93.1278 221.145 93.1278C230.31 93.1278 237.736 95.3766 243.422 99.8744C249.192 104.287 252.375 110.482 252.969 118.459H233.365C233.196 115.404 231.88 112.901 229.419 110.949C227.043 108.912 223.861 107.894 219.872 107.894C216.393 107.894 213.592 108.785 211.471 110.567C209.434 112.349 208.416 114.938 208.416 118.332C208.416 120.708 209.179 122.703 210.707 124.315C212.319 125.843 214.271 127.115 216.563 128.134C218.939 129.067 222.248 130.171 226.491 131.443C232.262 133.141 236.972 134.838 240.621 136.535C244.27 138.233 247.41 140.778 250.041 144.173C252.672 147.567 253.987 152.023 253.987 157.539C253.987 162.291 252.757 166.704 250.296 170.778C247.835 174.851 244.228 178.118 239.476 180.579C234.723 182.955 229.08 184.144 222.545 184.144ZM323.92 166.322H288.532L282.676 183.252H263.964L295.915 94.2734H316.664L348.615 183.252H329.775L323.92 166.322ZM319.082 152.065L306.226 114.895L293.369 152.065H319.082ZM425.351 121.896C425.351 126.649 424.205 131.104 421.914 135.262C419.707 139.421 416.186 142.773 411.348 145.319C406.596 147.865 400.571 149.137 393.272 149.137H378.379V183.252H360.558V94.4007H393.272C400.146 94.4007 406.002 95.5888 410.839 97.965C415.676 100.341 419.283 103.608 421.659 107.767C424.12 111.925 425.351 116.635 425.351 121.896ZM392.509 134.753C397.431 134.753 401.08 133.65 403.456 131.443C405.832 129.152 407.02 125.97 407.02 121.896C407.02 113.24 402.183 108.912 392.509 108.912H378.379V134.753H392.509ZM455.825 94.4007V183.252H438.004V94.4007H455.825ZM514.676 184.144C506.359 184.144 498.722 182.192 491.763 178.288C484.804 174.384 479.288 168.995 475.214 162.122C471.141 155.163 469.104 147.313 469.104 138.572C469.104 129.916 471.141 122.151 475.214 115.277C479.288 108.318 484.804 102.887 491.763 98.9833C498.722 95.0796 506.359 93.1278 514.676 93.1278C523.077 93.1278 530.715 95.0796 537.589 98.9833C544.548 102.887 550.021 108.318 554.01 115.277C558.083 122.151 560.12 129.916 560.12 138.572C560.12 147.313 558.083 155.163 554.01 162.122C550.021 168.995 544.548 174.384 537.589 178.288C530.63 182.192 522.992 184.144 514.676 184.144ZM514.676 168.232C520.022 168.232 524.732 167.044 528.806 164.667C532.879 162.206 536.061 158.727 538.353 154.229C540.644 149.731 541.79 144.512 541.79 138.572C541.79 132.632 540.644 127.455 538.353 123.042C536.061 118.544 532.879 115.107 528.806 112.731C524.732 110.355 520.022 109.167 514.676 109.167C509.329 109.167 504.577 110.355 500.419 112.731C496.345 115.107 493.163 118.544 490.872 123.042C488.58 127.455 487.435 132.632 487.435 138.572C487.435 144.512 488.58 149.731 490.872 154.229C493.163 158.727 496.345 162.206 500.419 164.667C504.577 167.044 509.329 168.232 514.676 168.232ZM590.945 94.4007V149.392C590.945 155.417 592.515 160.042 595.655 163.267C598.795 166.407 603.208 167.977 608.894 167.977C614.665 167.977 619.12 166.407 622.26 163.267C625.4 160.042 626.97 155.417 626.97 149.392V94.4007H644.918V149.265C644.918 156.818 643.263 163.225 639.954 168.486C636.729 173.663 632.358 177.567 626.842 180.197C621.411 182.828 615.343 184.144 608.639 184.144C602.02 184.144 595.995 182.828 590.563 180.197C585.217 177.567 580.974 173.663 577.834 168.486C574.694 163.225 573.124 156.818 573.124 149.265V94.4007H590.945Z" fill="#1E5A64"/>
<path d="M692.815 184.144C686.62 184.144 681.019 183.083 676.012 180.961C671.09 178.84 667.186 175.784 664.301 171.796C661.415 167.807 659.93 163.097 659.846 157.666H678.94C679.194 161.315 680.467 164.201 682.759 166.322C685.135 168.444 688.36 169.505 692.433 169.505C696.591 169.505 699.858 168.529 702.235 166.577C704.611 164.54 705.799 161.909 705.799 158.685C705.799 156.054 704.993 153.89 703.38 152.193C701.768 150.495 699.731 149.18 697.27 148.246C694.894 147.228 691.584 146.125 687.341 144.937C681.57 143.239 676.861 141.585 673.211 139.972C669.647 138.275 666.55 135.772 663.919 132.462C661.373 129.067 660.1 124.57 660.1 118.969C660.1 113.707 661.415 109.124 664.046 105.221C666.677 101.317 670.369 98.3469 675.121 96.3101C679.873 94.1886 685.304 93.1278 691.415 93.1278C700.58 93.1278 708.005 95.3766 713.691 99.8744C719.462 104.287 722.644 110.482 723.238 118.459H703.635C703.465 115.404 702.15 112.901 699.689 110.949C697.313 108.912 694.13 107.894 690.142 107.894C686.662 107.894 683.862 108.785 681.74 110.567C679.703 112.349 678.685 114.938 678.685 118.332C678.685 120.708 679.449 122.703 680.976 124.315C682.589 125.843 684.541 127.115 686.832 128.134C689.208 129.067 692.518 130.171 696.761 131.443C702.532 133.141 707.242 134.838 710.891 136.535C714.54 138.233 717.68 140.778 720.311 144.173C722.941 147.567 724.257 152.023 724.257 157.539C724.257 162.291 723.026 166.704 720.565 170.778C718.104 174.851 714.497 178.118 709.745 180.579C704.993 182.955 699.349 184.144 692.815 184.144Z" fill="#07A3E9"/>
<path fill-rule="evenodd" clip-rule="evenodd" d="M46.0818 45.824C20.7739 71.1319 20.7739 112.164 46.0818 137.472L84.6263 176.016C85.3812 176.771 86.15 177.504 86.932 178.213L102.268 162.878C101.391 162.131 100.538 161.343 99.7095 160.515L61.584 122.389C44.7217 105.527 44.7217 78.1876 61.584 61.3253C75.8623 47.0469 97.6527 44.859 114.233 54.7614L129.875 39.1195C104.539 20.7586 68.9124 22.9934 46.0818 45.824Z" fill="#07A3E9"/>
<path fill-rule="evenodd" clip-rule="evenodd" d="M46.0818 137.472C20.7739 112.164 20.7739 71.1319 46.0818 45.824C71.3897 20.5161 112.422 20.5161 137.73 45.824C160.953 69.0467 162.866 105.509 143.47 130.914L128.169 115.613C139.276 98.7685 137.418 75.888 122.594 61.0636C105.645 44.1146 78.1647 44.1146 61.2156 61.0636C58.6399 63.6394 56.4556 66.4583 54.6627 69.4465C52.7801 70.5461 51.0063 71.9029 49.3924 73.5169C39.2633 83.646 39.2633 100.068 49.3923 110.197L57.813 118.618C58.8591 119.942 59.9933 121.219 61.2156 122.442C62.438 123.664 63.7151 124.798 65.0391 125.844L95.5461 156.351C77.7697 157.345 59.662 151.052 46.0818 137.472Z" fill="#07A3E9"/>
<path fill-rule="evenodd" clip-rule="evenodd" d="M137.063 228.641C162.371 203.333 162.371 162.301 137.063 136.993L98.5182 98.4489C97.7632 97.6939 96.9942 96.9614 96.2121 96.2515L80.8758 111.588C81.7521 112.335 82.6057 113.122 83.4339 113.95L121.56 152.076C138.422 168.938 138.422 196.277 121.56 213.14C107.281 227.418 85.491 229.606 68.9104 219.704L53.2688 235.346C78.6046 253.707 114.232 251.472 137.063 228.641Z" fill="#1E5A64"/>
<path fill-rule="evenodd" clip-rule="evenodd" d="M137.063 136.993C162.371 162.301 162.371 203.333 137.063 228.641C111.755 253.949 70.7226 253.949 45.4147 228.641C22.1921 205.419 20.2787 168.956 39.6744 143.552L54.9749 158.852C43.8672 175.697 45.7255 198.577 60.5499 213.401C77.499 230.351 104.979 230.351 121.928 213.401C124.504 210.826 126.688 208.007 128.481 205.019C130.363 203.919 132.137 202.562 133.751 200.948C143.88 190.819 143.88 174.397 133.751 164.268L125.33 155.847C124.284 154.523 123.15 153.246 121.928 152.024C120.706 150.801 119.428 149.667 118.104 148.621L87.5977 118.114C105.374 117.12 123.482 123.413 137.063 136.993Z" fill="#1E5A64"/>
<rect x="84.9458" y="91.3931" width="10.8968" height="0.941226" transform="rotate(45 84.9458 91.3931)" fill="#07A3E9"/>
<circle cx="92.9072" cy="99.8712" r="1.67085" transform="rotate(45 92.9072 99.8712)" fill="#1E5A64"/>
<circle cx="85.4575" cy="92.4235" r="1.67085" transform="rotate(45 85.4575 92.4235)" fill="#07A3E9"/>
<circle cx="89.0317" cy="95.9993" r="1.05742" transform="rotate(45 89.0317 95.9993)" fill="#07A3E9"/>
<rect x="77.5347" y="95.4316" width="10.8968" height="0.866314" rx="0.433157" transform="rotate(1.63136 77.5347 95.4316)" fill="#07A3E9"/>
<circle cx="103.146" cy="180.177" r="1.67085" transform="rotate(5.93351 103.146 180.177)" fill="#1E5A64"/>
<circle cx="83.5899" cy="96.12" r="1.05742" transform="rotate(5.93351 83.5899 96.12)" fill="#07A3E9"/>
<rect x="76.7715" y="100.865" width="10.8968" height="0.955027" transform="rotate(25.3794 76.7715 100.865)" fill="#07A3E9"/>
<circle cx="76.5885" cy="101.621" r="1.34008" transform="rotate(25.3794 76.5885 101.621)" fill="#07A3E9"/>
<circle cx="82.0407" cy="103.933" r="1.05742" transform="rotate(25.3794 82.0407 103.933)" fill="#07A3E9"/>
<circle cx="86.4961" cy="106.198" r="1.67085" transform="rotate(45 86.4961 106.198)" fill="#1E5A64"/>
<rect x="76.3081" y="101.252" width="10.8968" height="0.989225" rx="0.494612" transform="rotate(48.5032 76.3081 101.252)" fill="#07A3E9"/>
<circle cx="79.9365" cy="106.154" r="1.05742" transform="rotate(48.5032 79.9365 106.154)" fill="#07A3E9"/>
<circle cx="83.1443" cy="109.987" r="1.67085" transform="rotate(68.1238 83.1443 109.987)" fill="#1E5A64"/>
<rect width="10.8968" height="0.983886" rx="0.491943" transform="matrix(-0.707107 -0.707107 -0.707107 0.707107 107.729 172.947)" fill="#1E5A64"/>
<circle r="1.67085" transform="matrix(-0.707107 -0.707107 -0.707107 0.707107 99.1878 165.153)" fill="#07A3E9"/>
<circle r="1.05742" transform="matrix(-0.707107 -0.707107 -0.707107 0.707107 103.059 169.025)" fill="#1E5A64"/>
<rect width="10.8968" height="0.853473" rx="0.426736" transform="matrix(-0.043274 -0.999063 -0.999063 0.043274 103.704 180.513)" fill="#1E5A64"/>
<circle r="1.05742" transform="matrix(-0.103374 -0.994642 -0.994642 0.103374 102.92 174.468)" fill="#1E5A64"/>
<rect width="12.6319" height="0.858169" rx="0.429085" transform="matrix(-0.428611 -0.903489 -0.903489 0.428611 98.8481 182.898)" fill="#1E5A64"/>
<circle r="1.05742" transform="matrix(-0.428611 -0.903489 -0.903489 0.428611 95.1271 176.02)" fill="#1E5A64"/>
<circle r="1.67085" transform="matrix(-0.707107 -0.707107 -0.707107 0.707107 92.8626 171.565)" fill="#07A3E9"/>
<rect width="12.2781" height="0.68747" rx="0.343735" transform="matrix(-0.748993 -0.662578 -0.662578 0.748993 98.7446 182.78)" fill="#1E5A64"/>
<circle r="1.05742" transform="matrix(-0.748993 -0.662578 -0.662578 0.748993 92.9063 178.125)" fill="#1E5A64"/>
<circle r="1.67085" transform="matrix(-0.927991 -0.372603 -0.372603 0.927991 89.0764 174.917)" fill="#07A3E9"/>
</svg>
